G04 #@! TF.GenerationSoftware,KiCad,Pcbnew,(5.1.9)-1*
G04 #@! TF.CreationDate,2021-02-02T19:43:56-05:00*
G04 #@! TF.ProjectId,feather_multi_oled,66656174-6865-4725-9f6d-756c74695f6f,0.1a*
G04 #@! TF.SameCoordinates,Original*
G04 #@! TF.FileFunction,Soldermask,Top*
G04 #@! TF.FilePolarity,Negative*
%FSLAX46Y46*%
G04 Gerber Fmt 4.6, Leading zero omitted, Abs format (unit mm)*
G04 Created by KiCad (PCBNEW (5.1.9)-1) date 2021-02-02 19:43:56*
%MOMM*%
%LPD*%
G01*
G04 APERTURE LIST*
%ADD10R,0.609600X1.600200*%
%ADD11R,0.406400X1.600200*%
%ADD12R,0.812800X0.254000*%
%ADD13R,1.092200X0.304800*%
%ADD14R,0.508000X0.254000*%
%ADD15R,0.711200X0.254000*%
%ADD16R,0.254000X0.711200*%
%ADD17R,0.304800X1.092200*%
%ADD18R,0.254000X0.406400*%
%ADD19R,0.700000X2.000000*%
%ADD20C,1.524000*%
%ADD21C,3.556000*%
%ADD22R,0.600000X0.700000*%
%ADD23O,1.800000X4.000000*%
%ADD24O,4.000000X1.800000*%
%ADD25R,4.400000X1.800000*%
G04 APERTURE END LIST*
D10*
X115516000Y-108524800D03*
X102003200Y-108524800D03*
X115516000Y-110912400D03*
X102003200Y-110912400D03*
D11*
X102993800Y-110912400D03*
X103501800Y-108524800D03*
X104009800Y-110912400D03*
X104492400Y-108524800D03*
X105000400Y-110912400D03*
X105508400Y-108524800D03*
X105991000Y-110912400D03*
X106499000Y-108524800D03*
X107007000Y-110912400D03*
X107489600Y-108524800D03*
X107997600Y-110912400D03*
X108505600Y-108524800D03*
X108988200Y-110912400D03*
X109496200Y-108524800D03*
X110004200Y-110912400D03*
X110512200Y-108524800D03*
X110994800Y-110912400D03*
X111502800Y-108524800D03*
X112010800Y-110912400D03*
X112493400Y-108524800D03*
X113001400Y-110912400D03*
X113509400Y-108524800D03*
X113992000Y-110912400D03*
X114500000Y-108524800D03*
D10*
X115516000Y-103524800D03*
X102003200Y-103524800D03*
X115516000Y-105912400D03*
X102003200Y-105912400D03*
D11*
X102993800Y-105912400D03*
X103501800Y-103524800D03*
X104009800Y-105912400D03*
X104492400Y-103524800D03*
X105000400Y-105912400D03*
X105508400Y-103524800D03*
X105991000Y-105912400D03*
X106499000Y-103524800D03*
X107007000Y-105912400D03*
X107489600Y-103524800D03*
X107997600Y-105912400D03*
X108505600Y-103524800D03*
X108988200Y-105912400D03*
X109496200Y-103524800D03*
X110004200Y-105912400D03*
X110512200Y-103524800D03*
X110994800Y-105912400D03*
X111502800Y-103524800D03*
X112010800Y-105912400D03*
X112493400Y-103524800D03*
X113001400Y-105912400D03*
X113509400Y-103524800D03*
X113992000Y-105912400D03*
X114500000Y-103524800D03*
D10*
X115516000Y-115524800D03*
X102003200Y-115524800D03*
X115516000Y-117912400D03*
X102003200Y-117912400D03*
D11*
X102993800Y-117912400D03*
X103501800Y-115524800D03*
X104009800Y-117912400D03*
X104492400Y-115524800D03*
X105000400Y-117912400D03*
X105508400Y-115524800D03*
X105991000Y-117912400D03*
X106499000Y-115524800D03*
X107007000Y-117912400D03*
X107489600Y-115524800D03*
X107997600Y-117912400D03*
X108505600Y-115524800D03*
X108988200Y-117912400D03*
X109496200Y-115524800D03*
X110004200Y-117912400D03*
X110512200Y-115524800D03*
X110994800Y-117912400D03*
X111502800Y-115524800D03*
X112010800Y-117912400D03*
X112493400Y-115524800D03*
X113001400Y-117912400D03*
X113509400Y-115524800D03*
X113992000Y-117912400D03*
X114500000Y-115524800D03*
D10*
X115516000Y-127524800D03*
X102003200Y-127524800D03*
X115516000Y-129912400D03*
X102003200Y-129912400D03*
D11*
X102993800Y-129912400D03*
X103501800Y-127524800D03*
X104009800Y-129912400D03*
X104492400Y-127524800D03*
X105000400Y-129912400D03*
X105508400Y-127524800D03*
X105991000Y-129912400D03*
X106499000Y-127524800D03*
X107007000Y-129912400D03*
X107489600Y-127524800D03*
X107997600Y-129912400D03*
X108505600Y-127524800D03*
X108988200Y-129912400D03*
X109496200Y-127524800D03*
X110004200Y-129912400D03*
X110512200Y-127524800D03*
X110994800Y-129912400D03*
X111502800Y-127524800D03*
X112010800Y-129912400D03*
X112493400Y-127524800D03*
X113001400Y-129912400D03*
X113509400Y-127524800D03*
X113992000Y-129912400D03*
X114500000Y-127524800D03*
D10*
X115516000Y-120524800D03*
X102003200Y-120524800D03*
X115516000Y-122912400D03*
X102003200Y-122912400D03*
D11*
X102993800Y-122912400D03*
X103501800Y-120524800D03*
X104009800Y-122912400D03*
X104492400Y-120524800D03*
X105000400Y-122912400D03*
X105508400Y-120524800D03*
X105991000Y-122912400D03*
X106499000Y-120524800D03*
X107007000Y-122912400D03*
X107489600Y-120524800D03*
X107997600Y-122912400D03*
X108505600Y-120524800D03*
X108988200Y-122912400D03*
X109496200Y-120524800D03*
X110004200Y-122912400D03*
X110512200Y-120524800D03*
X110994800Y-122912400D03*
X111502800Y-120524800D03*
X112010800Y-122912400D03*
X112493400Y-120524800D03*
X113001400Y-122912400D03*
X113509400Y-120524800D03*
X113992000Y-122912400D03*
X114500000Y-120524800D03*
D10*
X115516000Y-132524800D03*
X102003200Y-132524800D03*
X115516000Y-134912400D03*
X102003200Y-134912400D03*
D11*
X102993800Y-134912400D03*
X103501800Y-132524800D03*
X104009800Y-134912400D03*
X104492400Y-132524800D03*
X105000400Y-134912400D03*
X105508400Y-132524800D03*
X105991000Y-134912400D03*
X106499000Y-132524800D03*
X107007000Y-134912400D03*
X107489600Y-132524800D03*
X107997600Y-134912400D03*
X108505600Y-132524800D03*
X108988200Y-134912400D03*
X109496200Y-132524800D03*
X110004200Y-134912400D03*
X110512200Y-132524800D03*
X110994800Y-134912400D03*
X111502800Y-132524800D03*
X112010800Y-134912400D03*
X112493400Y-132524800D03*
X113001400Y-134912400D03*
X113509400Y-132524800D03*
X113992000Y-134912400D03*
X114500000Y-132524800D03*
D10*
X115516000Y-139524800D03*
X102003200Y-139524800D03*
X115516000Y-141912400D03*
X102003200Y-141912400D03*
D11*
X102993800Y-141912400D03*
X103501800Y-139524800D03*
X104009800Y-141912400D03*
X104492400Y-139524800D03*
X105000400Y-141912400D03*
X105508400Y-139524800D03*
X105991000Y-141912400D03*
X106499000Y-139524800D03*
X107007000Y-141912400D03*
X107489600Y-139524800D03*
X107997600Y-141912400D03*
X108505600Y-139524800D03*
X108988200Y-141912400D03*
X109496200Y-139524800D03*
X110004200Y-141912400D03*
X110512200Y-139524800D03*
X110994800Y-141912400D03*
X111502800Y-139524800D03*
X112010800Y-141912400D03*
X112493400Y-139524800D03*
X113001400Y-141912400D03*
X113509400Y-139524800D03*
X113992000Y-141912400D03*
X114500000Y-139524800D03*
D10*
X115516000Y-144524800D03*
X102003200Y-144524800D03*
X115516000Y-146912400D03*
X102003200Y-146912400D03*
D11*
X102993800Y-146912400D03*
X103501800Y-144524800D03*
X104009800Y-146912400D03*
X104492400Y-144524800D03*
X105000400Y-146912400D03*
X105508400Y-144524800D03*
X105991000Y-146912400D03*
X106499000Y-144524800D03*
X107007000Y-146912400D03*
X107489600Y-144524800D03*
X107997600Y-146912400D03*
X108505600Y-144524800D03*
X108988200Y-146912400D03*
X109496200Y-144524800D03*
X110004200Y-146912400D03*
X110512200Y-144524800D03*
X110994800Y-146912400D03*
X111502800Y-144524800D03*
X112010800Y-146912400D03*
X112493400Y-144524800D03*
X113001400Y-146912400D03*
X113509400Y-144524800D03*
X113992000Y-146912400D03*
X114500000Y-144524800D03*
D10*
X115516000Y-151524800D03*
X102003200Y-151524800D03*
X115516000Y-153912400D03*
X102003200Y-153912400D03*
D11*
X102993800Y-153912400D03*
X103501800Y-151524800D03*
X104009800Y-153912400D03*
X104492400Y-151524800D03*
X105000400Y-153912400D03*
X105508400Y-151524800D03*
X105991000Y-153912400D03*
X106499000Y-151524800D03*
X107007000Y-153912400D03*
X107489600Y-151524800D03*
X107997600Y-153912400D03*
X108505600Y-151524800D03*
X108988200Y-153912400D03*
X109496200Y-151524800D03*
X110004200Y-153912400D03*
X110512200Y-151524800D03*
X110994800Y-153912400D03*
X111502800Y-151524800D03*
X112010800Y-153912400D03*
X112493400Y-151524800D03*
X113001400Y-153912400D03*
X113509400Y-151524800D03*
X113992000Y-153912400D03*
X114500000Y-151524800D03*
D10*
X115516000Y-156524800D03*
X102003200Y-156524800D03*
X115516000Y-158912400D03*
X102003200Y-158912400D03*
D11*
X102993800Y-158912400D03*
X103501800Y-156524800D03*
X104009800Y-158912400D03*
X104492400Y-156524800D03*
X105000400Y-158912400D03*
X105508400Y-156524800D03*
X105991000Y-158912400D03*
X106499000Y-156524800D03*
X107007000Y-158912400D03*
X107489600Y-156524800D03*
X107997600Y-158912400D03*
X108505600Y-156524800D03*
X108988200Y-158912400D03*
X109496200Y-156524800D03*
X110004200Y-158912400D03*
X110512200Y-156524800D03*
X110994800Y-158912400D03*
X111502800Y-156524800D03*
X112010800Y-158912400D03*
X112493400Y-156524800D03*
X113001400Y-158912400D03*
X113509400Y-156524800D03*
X113992000Y-158912400D03*
X114500000Y-156524800D03*
D12*
X107156000Y-66375000D03*
D13*
X107296000Y-67024999D03*
X107296000Y-67675000D03*
D14*
X107004000Y-68325000D03*
X107004000Y-69175001D03*
X107004000Y-70025000D03*
X110096000Y-70025000D03*
X110096000Y-69175001D03*
X110096000Y-68325000D03*
D13*
X109804000Y-67675000D03*
X109804000Y-67024999D03*
D15*
X109994000Y-66375000D03*
D16*
X109800000Y-65481000D03*
X109300001Y-65481000D03*
D17*
X108800000Y-65671000D03*
X108300000Y-65671000D03*
D16*
X107799999Y-65481000D03*
X107300000Y-65481000D03*
D18*
X108300000Y-67350000D03*
X108800000Y-67350000D03*
D19*
X107534000Y-69195000D03*
X109566000Y-69195000D03*
D20*
X118560000Y-61610000D03*
X118560000Y-64150000D03*
X118560000Y-66690000D03*
X118560000Y-69230000D03*
X118560000Y-71770000D03*
X118560000Y-74310000D03*
X118560000Y-76850000D03*
X118560000Y-79390000D03*
X118560000Y-81930000D03*
X118560000Y-84470000D03*
X118560000Y-87010000D03*
X118560000Y-89550000D03*
X98240000Y-89550000D03*
X98240000Y-87010000D03*
X98240000Y-84470000D03*
X98240000Y-81930000D03*
X98240000Y-79390000D03*
X98240000Y-76850000D03*
X98240000Y-74310000D03*
X98240000Y-71770000D03*
X98240000Y-69230000D03*
X98240000Y-66690000D03*
X98240000Y-64150000D03*
X98240000Y-61610000D03*
X98240000Y-59070000D03*
X98240000Y-56530000D03*
X98240000Y-53990000D03*
X98240000Y-51450000D03*
D21*
X99510000Y-93360000D03*
X99510000Y-47640000D03*
X117290000Y-93360000D03*
X117290000Y-47640000D03*
G36*
G01*
X109700000Y-63100000D02*
X109700000Y-62150000D01*
G75*
G02*
X109950000Y-61900000I250000J0D01*
G01*
X110450000Y-61900000D01*
G75*
G02*
X110700000Y-62150000I0J-250000D01*
G01*
X110700000Y-63100000D01*
G75*
G02*
X110450000Y-63350000I-250000J0D01*
G01*
X109950000Y-63350000D01*
G75*
G02*
X109700000Y-63100000I0J250000D01*
G01*
G37*
G36*
G01*
X107800000Y-63100000D02*
X107800000Y-62150000D01*
G75*
G02*
X108050000Y-61900000I250000J0D01*
G01*
X108550000Y-61900000D01*
G75*
G02*
X108800000Y-62150000I0J-250000D01*
G01*
X108800000Y-63100000D01*
G75*
G02*
X108550000Y-63350000I-250000J0D01*
G01*
X108050000Y-63350000D01*
G75*
G02*
X107800000Y-63100000I0J250000D01*
G01*
G37*
G36*
G01*
X112525000Y-69075000D02*
X111575000Y-69075000D01*
G75*
G02*
X111325000Y-68825000I0J250000D01*
G01*
X111325000Y-68325000D01*
G75*
G02*
X111575000Y-68075000I250000J0D01*
G01*
X112525000Y-68075000D01*
G75*
G02*
X112775000Y-68325000I0J-250000D01*
G01*
X112775000Y-68825000D01*
G75*
G02*
X112525000Y-69075000I-250000J0D01*
G01*
G37*
G36*
G01*
X112525000Y-67175000D02*
X111575000Y-67175000D01*
G75*
G02*
X111325000Y-66925000I0J250000D01*
G01*
X111325000Y-66425000D01*
G75*
G02*
X111575000Y-66175000I250000J0D01*
G01*
X112525000Y-66175000D01*
G75*
G02*
X112775000Y-66425000I0J-250000D01*
G01*
X112775000Y-66925000D01*
G75*
G02*
X112525000Y-67175000I-250000J0D01*
G01*
G37*
G36*
G01*
X115375000Y-71625000D02*
X116325000Y-71625000D01*
G75*
G02*
X116575000Y-71875000I0J-250000D01*
G01*
X116575000Y-72375000D01*
G75*
G02*
X116325000Y-72625000I-250000J0D01*
G01*
X115375000Y-72625000D01*
G75*
G02*
X115125000Y-72375000I0J250000D01*
G01*
X115125000Y-71875000D01*
G75*
G02*
X115375000Y-71625000I250000J0D01*
G01*
G37*
G36*
G01*
X115375000Y-73525000D02*
X116325000Y-73525000D01*
G75*
G02*
X116575000Y-73775000I0J-250000D01*
G01*
X116575000Y-74275000D01*
G75*
G02*
X116325000Y-74525000I-250000J0D01*
G01*
X115375000Y-74525000D01*
G75*
G02*
X115125000Y-74275000I0J250000D01*
G01*
X115125000Y-73775000D01*
G75*
G02*
X115375000Y-73525000I250000J0D01*
G01*
G37*
G36*
G01*
X98850000Y-104525000D02*
X98850000Y-105475000D01*
G75*
G02*
X98600000Y-105725000I-250000J0D01*
G01*
X98100000Y-105725000D01*
G75*
G02*
X97850000Y-105475000I0J250000D01*
G01*
X97850000Y-104525000D01*
G75*
G02*
X98100000Y-104275000I250000J0D01*
G01*
X98600000Y-104275000D01*
G75*
G02*
X98850000Y-104525000I0J-250000D01*
G01*
G37*
G36*
G01*
X100750000Y-104525000D02*
X100750000Y-105475000D01*
G75*
G02*
X100500000Y-105725000I-250000J0D01*
G01*
X100000000Y-105725000D01*
G75*
G02*
X99750000Y-105475000I0J250000D01*
G01*
X99750000Y-104525000D01*
G75*
G02*
X100000000Y-104275000I250000J0D01*
G01*
X100500000Y-104275000D01*
G75*
G02*
X100750000Y-104525000I0J-250000D01*
G01*
G37*
G36*
G01*
X100750000Y-102425000D02*
X100750000Y-103375000D01*
G75*
G02*
X100500000Y-103625000I-250000J0D01*
G01*
X100000000Y-103625000D01*
G75*
G02*
X99750000Y-103375000I0J250000D01*
G01*
X99750000Y-102425000D01*
G75*
G02*
X100000000Y-102175000I250000J0D01*
G01*
X100500000Y-102175000D01*
G75*
G02*
X100750000Y-102425000I0J-250000D01*
G01*
G37*
G36*
G01*
X98850000Y-102425000D02*
X98850000Y-103375000D01*
G75*
G02*
X98600000Y-103625000I-250000J0D01*
G01*
X98100000Y-103625000D01*
G75*
G02*
X97850000Y-103375000I0J250000D01*
G01*
X97850000Y-102425000D01*
G75*
G02*
X98100000Y-102175000I250000J0D01*
G01*
X98600000Y-102175000D01*
G75*
G02*
X98850000Y-102425000I0J-250000D01*
G01*
G37*
G36*
G01*
X98850000Y-100425000D02*
X98850000Y-101375000D01*
G75*
G02*
X98600000Y-101625000I-250000J0D01*
G01*
X98100000Y-101625000D01*
G75*
G02*
X97850000Y-101375000I0J250000D01*
G01*
X97850000Y-100425000D01*
G75*
G02*
X98100000Y-100175000I250000J0D01*
G01*
X98600000Y-100175000D01*
G75*
G02*
X98850000Y-100425000I0J-250000D01*
G01*
G37*
G36*
G01*
X100750000Y-100425000D02*
X100750000Y-101375000D01*
G75*
G02*
X100500000Y-101625000I-250000J0D01*
G01*
X100000000Y-101625000D01*
G75*
G02*
X99750000Y-101375000I0J250000D01*
G01*
X99750000Y-100425000D01*
G75*
G02*
X100000000Y-100175000I250000J0D01*
G01*
X100500000Y-100175000D01*
G75*
G02*
X100750000Y-100425000I0J-250000D01*
G01*
G37*
G36*
G01*
X100850000Y-108525000D02*
X100850000Y-109475000D01*
G75*
G02*
X100600000Y-109725000I-250000J0D01*
G01*
X100100000Y-109725000D01*
G75*
G02*
X99850000Y-109475000I0J250000D01*
G01*
X99850000Y-108525000D01*
G75*
G02*
X100100000Y-108275000I250000J0D01*
G01*
X100600000Y-108275000D01*
G75*
G02*
X100850000Y-108525000I0J-250000D01*
G01*
G37*
G36*
G01*
X98950000Y-108525000D02*
X98950000Y-109475000D01*
G75*
G02*
X98700000Y-109725000I-250000J0D01*
G01*
X98200000Y-109725000D01*
G75*
G02*
X97950000Y-109475000I0J250000D01*
G01*
X97950000Y-108525000D01*
G75*
G02*
X98200000Y-108275000I250000J0D01*
G01*
X98700000Y-108275000D01*
G75*
G02*
X98950000Y-108525000I0J-250000D01*
G01*
G37*
G36*
G01*
X98950000Y-114925000D02*
X98950000Y-115875000D01*
G75*
G02*
X98700000Y-116125000I-250000J0D01*
G01*
X98200000Y-116125000D01*
G75*
G02*
X97950000Y-115875000I0J250000D01*
G01*
X97950000Y-114925000D01*
G75*
G02*
X98200000Y-114675000I250000J0D01*
G01*
X98700000Y-114675000D01*
G75*
G02*
X98950000Y-114925000I0J-250000D01*
G01*
G37*
G36*
G01*
X100850000Y-114925000D02*
X100850000Y-115875000D01*
G75*
G02*
X100600000Y-116125000I-250000J0D01*
G01*
X100100000Y-116125000D01*
G75*
G02*
X99850000Y-115875000I0J250000D01*
G01*
X99850000Y-114925000D01*
G75*
G02*
X100100000Y-114675000I250000J0D01*
G01*
X100600000Y-114675000D01*
G75*
G02*
X100850000Y-114925000I0J-250000D01*
G01*
G37*
G36*
G01*
X100850000Y-116925000D02*
X100850000Y-117875000D01*
G75*
G02*
X100600000Y-118125000I-250000J0D01*
G01*
X100100000Y-118125000D01*
G75*
G02*
X99850000Y-117875000I0J250000D01*
G01*
X99850000Y-116925000D01*
G75*
G02*
X100100000Y-116675000I250000J0D01*
G01*
X100600000Y-116675000D01*
G75*
G02*
X100850000Y-116925000I0J-250000D01*
G01*
G37*
G36*
G01*
X98950000Y-116925000D02*
X98950000Y-117875000D01*
G75*
G02*
X98700000Y-118125000I-250000J0D01*
G01*
X98200000Y-118125000D01*
G75*
G02*
X97950000Y-117875000I0J250000D01*
G01*
X97950000Y-116925000D01*
G75*
G02*
X98200000Y-116675000I250000J0D01*
G01*
X98700000Y-116675000D01*
G75*
G02*
X98950000Y-116925000I0J-250000D01*
G01*
G37*
G36*
G01*
X98950000Y-118925000D02*
X98950000Y-119875000D01*
G75*
G02*
X98700000Y-120125000I-250000J0D01*
G01*
X98200000Y-120125000D01*
G75*
G02*
X97950000Y-119875000I0J250000D01*
G01*
X97950000Y-118925000D01*
G75*
G02*
X98200000Y-118675000I250000J0D01*
G01*
X98700000Y-118675000D01*
G75*
G02*
X98950000Y-118925000I0J-250000D01*
G01*
G37*
G36*
G01*
X100850000Y-118925000D02*
X100850000Y-119875000D01*
G75*
G02*
X100600000Y-120125000I-250000J0D01*
G01*
X100100000Y-120125000D01*
G75*
G02*
X99850000Y-119875000I0J250000D01*
G01*
X99850000Y-118925000D01*
G75*
G02*
X100100000Y-118675000I250000J0D01*
G01*
X100600000Y-118675000D01*
G75*
G02*
X100850000Y-118925000I0J-250000D01*
G01*
G37*
G36*
G01*
X98950000Y-127425000D02*
X98950000Y-128375000D01*
G75*
G02*
X98700000Y-128625000I-250000J0D01*
G01*
X98200000Y-128625000D01*
G75*
G02*
X97950000Y-128375000I0J250000D01*
G01*
X97950000Y-127425000D01*
G75*
G02*
X98200000Y-127175000I250000J0D01*
G01*
X98700000Y-127175000D01*
G75*
G02*
X98950000Y-127425000I0J-250000D01*
G01*
G37*
G36*
G01*
X100850000Y-127425000D02*
X100850000Y-128375000D01*
G75*
G02*
X100600000Y-128625000I-250000J0D01*
G01*
X100100000Y-128625000D01*
G75*
G02*
X99850000Y-128375000I0J250000D01*
G01*
X99850000Y-127425000D01*
G75*
G02*
X100100000Y-127175000I250000J0D01*
G01*
X100600000Y-127175000D01*
G75*
G02*
X100850000Y-127425000I0J-250000D01*
G01*
G37*
G36*
G01*
X100850000Y-129425000D02*
X100850000Y-130375000D01*
G75*
G02*
X100600000Y-130625000I-250000J0D01*
G01*
X100100000Y-130625000D01*
G75*
G02*
X99850000Y-130375000I0J250000D01*
G01*
X99850000Y-129425000D01*
G75*
G02*
X100100000Y-129175000I250000J0D01*
G01*
X100600000Y-129175000D01*
G75*
G02*
X100850000Y-129425000I0J-250000D01*
G01*
G37*
G36*
G01*
X98950000Y-129425000D02*
X98950000Y-130375000D01*
G75*
G02*
X98700000Y-130625000I-250000J0D01*
G01*
X98200000Y-130625000D01*
G75*
G02*
X97950000Y-130375000I0J250000D01*
G01*
X97950000Y-129425000D01*
G75*
G02*
X98200000Y-129175000I250000J0D01*
G01*
X98700000Y-129175000D01*
G75*
G02*
X98950000Y-129425000I0J-250000D01*
G01*
G37*
G36*
G01*
X98950000Y-131425000D02*
X98950000Y-132375000D01*
G75*
G02*
X98700000Y-132625000I-250000J0D01*
G01*
X98200000Y-132625000D01*
G75*
G02*
X97950000Y-132375000I0J250000D01*
G01*
X97950000Y-131425000D01*
G75*
G02*
X98200000Y-131175000I250000J0D01*
G01*
X98700000Y-131175000D01*
G75*
G02*
X98950000Y-131425000I0J-250000D01*
G01*
G37*
G36*
G01*
X100850000Y-131425000D02*
X100850000Y-132375000D01*
G75*
G02*
X100600000Y-132625000I-250000J0D01*
G01*
X100100000Y-132625000D01*
G75*
G02*
X99850000Y-132375000I0J250000D01*
G01*
X99850000Y-131425000D01*
G75*
G02*
X100100000Y-131175000I250000J0D01*
G01*
X100600000Y-131175000D01*
G75*
G02*
X100850000Y-131425000I0J-250000D01*
G01*
G37*
G36*
G01*
X100850000Y-122925000D02*
X100850000Y-123875000D01*
G75*
G02*
X100600000Y-124125000I-250000J0D01*
G01*
X100100000Y-124125000D01*
G75*
G02*
X99850000Y-123875000I0J250000D01*
G01*
X99850000Y-122925000D01*
G75*
G02*
X100100000Y-122675000I250000J0D01*
G01*
X100600000Y-122675000D01*
G75*
G02*
X100850000Y-122925000I0J-250000D01*
G01*
G37*
G36*
G01*
X98950000Y-122925000D02*
X98950000Y-123875000D01*
G75*
G02*
X98700000Y-124125000I-250000J0D01*
G01*
X98200000Y-124125000D01*
G75*
G02*
X97950000Y-123875000I0J250000D01*
G01*
X97950000Y-122925000D01*
G75*
G02*
X98200000Y-122675000I250000J0D01*
G01*
X98700000Y-122675000D01*
G75*
G02*
X98950000Y-122925000I0J-250000D01*
G01*
G37*
G36*
G01*
X100850000Y-135425000D02*
X100850000Y-136375000D01*
G75*
G02*
X100600000Y-136625000I-250000J0D01*
G01*
X100100000Y-136625000D01*
G75*
G02*
X99850000Y-136375000I0J250000D01*
G01*
X99850000Y-135425000D01*
G75*
G02*
X100100000Y-135175000I250000J0D01*
G01*
X100600000Y-135175000D01*
G75*
G02*
X100850000Y-135425000I0J-250000D01*
G01*
G37*
G36*
G01*
X98950000Y-135425000D02*
X98950000Y-136375000D01*
G75*
G02*
X98700000Y-136625000I-250000J0D01*
G01*
X98200000Y-136625000D01*
G75*
G02*
X97950000Y-136375000I0J250000D01*
G01*
X97950000Y-135425000D01*
G75*
G02*
X98200000Y-135175000I250000J0D01*
G01*
X98700000Y-135175000D01*
G75*
G02*
X98950000Y-135425000I0J-250000D01*
G01*
G37*
G36*
G01*
X98950000Y-139625000D02*
X98950000Y-140575000D01*
G75*
G02*
X98700000Y-140825000I-250000J0D01*
G01*
X98200000Y-140825000D01*
G75*
G02*
X97950000Y-140575000I0J250000D01*
G01*
X97950000Y-139625000D01*
G75*
G02*
X98200000Y-139375000I250000J0D01*
G01*
X98700000Y-139375000D01*
G75*
G02*
X98950000Y-139625000I0J-250000D01*
G01*
G37*
G36*
G01*
X100850000Y-139625000D02*
X100850000Y-140575000D01*
G75*
G02*
X100600000Y-140825000I-250000J0D01*
G01*
X100100000Y-140825000D01*
G75*
G02*
X99850000Y-140575000I0J250000D01*
G01*
X99850000Y-139625000D01*
G75*
G02*
X100100000Y-139375000I250000J0D01*
G01*
X100600000Y-139375000D01*
G75*
G02*
X100850000Y-139625000I0J-250000D01*
G01*
G37*
G36*
G01*
X100850000Y-141625000D02*
X100850000Y-142575000D01*
G75*
G02*
X100600000Y-142825000I-250000J0D01*
G01*
X100100000Y-142825000D01*
G75*
G02*
X99850000Y-142575000I0J250000D01*
G01*
X99850000Y-141625000D01*
G75*
G02*
X100100000Y-141375000I250000J0D01*
G01*
X100600000Y-141375000D01*
G75*
G02*
X100850000Y-141625000I0J-250000D01*
G01*
G37*
G36*
G01*
X98950000Y-141625000D02*
X98950000Y-142575000D01*
G75*
G02*
X98700000Y-142825000I-250000J0D01*
G01*
X98200000Y-142825000D01*
G75*
G02*
X97950000Y-142575000I0J250000D01*
G01*
X97950000Y-141625000D01*
G75*
G02*
X98200000Y-141375000I250000J0D01*
G01*
X98700000Y-141375000D01*
G75*
G02*
X98950000Y-141625000I0J-250000D01*
G01*
G37*
G36*
G01*
X98950000Y-143625000D02*
X98950000Y-144575000D01*
G75*
G02*
X98700000Y-144825000I-250000J0D01*
G01*
X98200000Y-144825000D01*
G75*
G02*
X97950000Y-144575000I0J250000D01*
G01*
X97950000Y-143625000D01*
G75*
G02*
X98200000Y-143375000I250000J0D01*
G01*
X98700000Y-143375000D01*
G75*
G02*
X98950000Y-143625000I0J-250000D01*
G01*
G37*
G36*
G01*
X100850000Y-143625000D02*
X100850000Y-144575000D01*
G75*
G02*
X100600000Y-144825000I-250000J0D01*
G01*
X100100000Y-144825000D01*
G75*
G02*
X99850000Y-144575000I0J250000D01*
G01*
X99850000Y-143625000D01*
G75*
G02*
X100100000Y-143375000I250000J0D01*
G01*
X100600000Y-143375000D01*
G75*
G02*
X100850000Y-143625000I0J-250000D01*
G01*
G37*
G36*
G01*
X100850000Y-147725000D02*
X100850000Y-148675000D01*
G75*
G02*
X100600000Y-148925000I-250000J0D01*
G01*
X100100000Y-148925000D01*
G75*
G02*
X99850000Y-148675000I0J250000D01*
G01*
X99850000Y-147725000D01*
G75*
G02*
X100100000Y-147475000I250000J0D01*
G01*
X100600000Y-147475000D01*
G75*
G02*
X100850000Y-147725000I0J-250000D01*
G01*
G37*
G36*
G01*
X98950000Y-147725000D02*
X98950000Y-148675000D01*
G75*
G02*
X98700000Y-148925000I-250000J0D01*
G01*
X98200000Y-148925000D01*
G75*
G02*
X97950000Y-148675000I0J250000D01*
G01*
X97950000Y-147725000D01*
G75*
G02*
X98200000Y-147475000I250000J0D01*
G01*
X98700000Y-147475000D01*
G75*
G02*
X98950000Y-147725000I0J-250000D01*
G01*
G37*
G36*
G01*
X100850000Y-151725000D02*
X100850000Y-152675000D01*
G75*
G02*
X100600000Y-152925000I-250000J0D01*
G01*
X100100000Y-152925000D01*
G75*
G02*
X99850000Y-152675000I0J250000D01*
G01*
X99850000Y-151725000D01*
G75*
G02*
X100100000Y-151475000I250000J0D01*
G01*
X100600000Y-151475000D01*
G75*
G02*
X100850000Y-151725000I0J-250000D01*
G01*
G37*
G36*
G01*
X98950000Y-151725000D02*
X98950000Y-152675000D01*
G75*
G02*
X98700000Y-152925000I-250000J0D01*
G01*
X98200000Y-152925000D01*
G75*
G02*
X97950000Y-152675000I0J250000D01*
G01*
X97950000Y-151725000D01*
G75*
G02*
X98200000Y-151475000I250000J0D01*
G01*
X98700000Y-151475000D01*
G75*
G02*
X98950000Y-151725000I0J-250000D01*
G01*
G37*
G36*
G01*
X98950000Y-153725000D02*
X98950000Y-154675000D01*
G75*
G02*
X98700000Y-154925000I-250000J0D01*
G01*
X98200000Y-154925000D01*
G75*
G02*
X97950000Y-154675000I0J250000D01*
G01*
X97950000Y-153725000D01*
G75*
G02*
X98200000Y-153475000I250000J0D01*
G01*
X98700000Y-153475000D01*
G75*
G02*
X98950000Y-153725000I0J-250000D01*
G01*
G37*
G36*
G01*
X100850000Y-153725000D02*
X100850000Y-154675000D01*
G75*
G02*
X100600000Y-154925000I-250000J0D01*
G01*
X100100000Y-154925000D01*
G75*
G02*
X99850000Y-154675000I0J250000D01*
G01*
X99850000Y-153725000D01*
G75*
G02*
X100100000Y-153475000I250000J0D01*
G01*
X100600000Y-153475000D01*
G75*
G02*
X100850000Y-153725000I0J-250000D01*
G01*
G37*
G36*
G01*
X100850000Y-155825000D02*
X100850000Y-156775000D01*
G75*
G02*
X100600000Y-157025000I-250000J0D01*
G01*
X100100000Y-157025000D01*
G75*
G02*
X99850000Y-156775000I0J250000D01*
G01*
X99850000Y-155825000D01*
G75*
G02*
X100100000Y-155575000I250000J0D01*
G01*
X100600000Y-155575000D01*
G75*
G02*
X100850000Y-155825000I0J-250000D01*
G01*
G37*
G36*
G01*
X98950000Y-155825000D02*
X98950000Y-156775000D01*
G75*
G02*
X98700000Y-157025000I-250000J0D01*
G01*
X98200000Y-157025000D01*
G75*
G02*
X97950000Y-156775000I0J250000D01*
G01*
X97950000Y-155825000D01*
G75*
G02*
X98200000Y-155575000I250000J0D01*
G01*
X98700000Y-155575000D01*
G75*
G02*
X98950000Y-155825000I0J-250000D01*
G01*
G37*
G36*
G01*
X100850000Y-159625000D02*
X100850000Y-160575000D01*
G75*
G02*
X100600000Y-160825000I-250000J0D01*
G01*
X100100000Y-160825000D01*
G75*
G02*
X99850000Y-160575000I0J250000D01*
G01*
X99850000Y-159625000D01*
G75*
G02*
X100100000Y-159375000I250000J0D01*
G01*
X100600000Y-159375000D01*
G75*
G02*
X100850000Y-159625000I0J-250000D01*
G01*
G37*
G36*
G01*
X98950000Y-159625000D02*
X98950000Y-160575000D01*
G75*
G02*
X98700000Y-160825000I-250000J0D01*
G01*
X98200000Y-160825000D01*
G75*
G02*
X97950000Y-160575000I0J250000D01*
G01*
X97950000Y-159625000D01*
G75*
G02*
X98200000Y-159375000I250000J0D01*
G01*
X98700000Y-159375000D01*
G75*
G02*
X98950000Y-159625000I0J-250000D01*
G01*
G37*
D22*
X112000000Y-74100000D03*
X113400000Y-74100000D03*
G36*
G01*
X112725000Y-71849998D02*
X112725000Y-72750002D01*
G75*
G02*
X112475002Y-73000000I-249998J0D01*
G01*
X111949998Y-73000000D01*
G75*
G02*
X111700000Y-72750002I0J249998D01*
G01*
X111700000Y-71849998D01*
G75*
G02*
X111949998Y-71600000I249998J0D01*
G01*
X112475002Y-71600000D01*
G75*
G02*
X112725000Y-71849998I0J-249998D01*
G01*
G37*
G36*
G01*
X114550000Y-71849998D02*
X114550000Y-72750002D01*
G75*
G02*
X114300002Y-73000000I-249998J0D01*
G01*
X113774998Y-73000000D01*
G75*
G02*
X113525000Y-72750002I0J249998D01*
G01*
X113525000Y-71849998D01*
G75*
G02*
X113774998Y-71600000I249998J0D01*
G01*
X114300002Y-71600000D01*
G75*
G02*
X114550000Y-71849998I0J-249998D01*
G01*
G37*
G36*
G01*
X116649998Y-161675000D02*
X117550002Y-161675000D01*
G75*
G02*
X117800000Y-161924998I0J-249998D01*
G01*
X117800000Y-162450002D01*
G75*
G02*
X117550002Y-162700000I-249998J0D01*
G01*
X116649998Y-162700000D01*
G75*
G02*
X116400000Y-162450002I0J249998D01*
G01*
X116400000Y-161924998D01*
G75*
G02*
X116649998Y-161675000I249998J0D01*
G01*
G37*
G36*
G01*
X116649998Y-163500000D02*
X117550002Y-163500000D01*
G75*
G02*
X117800000Y-163749998I0J-249998D01*
G01*
X117800000Y-164275002D01*
G75*
G02*
X117550002Y-164525000I-249998J0D01*
G01*
X116649998Y-164525000D01*
G75*
G02*
X116400000Y-164275002I0J249998D01*
G01*
X116400000Y-163749998D01*
G75*
G02*
X116649998Y-163500000I249998J0D01*
G01*
G37*
G36*
G01*
X114749998Y-163500000D02*
X115650002Y-163500000D01*
G75*
G02*
X115900000Y-163749998I0J-249998D01*
G01*
X115900000Y-164275002D01*
G75*
G02*
X115650002Y-164525000I-249998J0D01*
G01*
X114749998Y-164525000D01*
G75*
G02*
X114500000Y-164275002I0J249998D01*
G01*
X114500000Y-163749998D01*
G75*
G02*
X114749998Y-163500000I249998J0D01*
G01*
G37*
G36*
G01*
X114749998Y-161675000D02*
X115650002Y-161675000D01*
G75*
G02*
X115900000Y-161924998I0J-249998D01*
G01*
X115900000Y-162450002D01*
G75*
G02*
X115650002Y-162700000I-249998J0D01*
G01*
X114749998Y-162700000D01*
G75*
G02*
X114500000Y-162450002I0J249998D01*
G01*
X114500000Y-161924998D01*
G75*
G02*
X114749998Y-161675000I249998J0D01*
G01*
G37*
G36*
G01*
X112849998Y-161675000D02*
X113750002Y-161675000D01*
G75*
G02*
X114000000Y-161924998I0J-249998D01*
G01*
X114000000Y-162450002D01*
G75*
G02*
X113750002Y-162700000I-249998J0D01*
G01*
X112849998Y-162700000D01*
G75*
G02*
X112600000Y-162450002I0J249998D01*
G01*
X112600000Y-161924998D01*
G75*
G02*
X112849998Y-161675000I249998J0D01*
G01*
G37*
G36*
G01*
X112849998Y-163500000D02*
X113750002Y-163500000D01*
G75*
G02*
X114000000Y-163749998I0J-249998D01*
G01*
X114000000Y-164275002D01*
G75*
G02*
X113750002Y-164525000I-249998J0D01*
G01*
X112849998Y-164525000D01*
G75*
G02*
X112600000Y-164275002I0J249998D01*
G01*
X112600000Y-163749998D01*
G75*
G02*
X112849998Y-163500000I249998J0D01*
G01*
G37*
G36*
G01*
X110949998Y-161675000D02*
X111850002Y-161675000D01*
G75*
G02*
X112100000Y-161924998I0J-249998D01*
G01*
X112100000Y-162450002D01*
G75*
G02*
X111850002Y-162700000I-249998J0D01*
G01*
X110949998Y-162700000D01*
G75*
G02*
X110700000Y-162450002I0J249998D01*
G01*
X110700000Y-161924998D01*
G75*
G02*
X110949998Y-161675000I249998J0D01*
G01*
G37*
G36*
G01*
X110949998Y-163500000D02*
X111850002Y-163500000D01*
G75*
G02*
X112100000Y-163749998I0J-249998D01*
G01*
X112100000Y-164275002D01*
G75*
G02*
X111850002Y-164525000I-249998J0D01*
G01*
X110949998Y-164525000D01*
G75*
G02*
X110700000Y-164275002I0J249998D01*
G01*
X110700000Y-163749998D01*
G75*
G02*
X110949998Y-163500000I249998J0D01*
G01*
G37*
G36*
G01*
X109049998Y-163500000D02*
X109950002Y-163500000D01*
G75*
G02*
X110200000Y-163749998I0J-249998D01*
G01*
X110200000Y-164275002D01*
G75*
G02*
X109950002Y-164525000I-249998J0D01*
G01*
X109049998Y-164525000D01*
G75*
G02*
X108800000Y-164275002I0J249998D01*
G01*
X108800000Y-163749998D01*
G75*
G02*
X109049998Y-163500000I249998J0D01*
G01*
G37*
G36*
G01*
X109049998Y-161675000D02*
X109950002Y-161675000D01*
G75*
G02*
X110200000Y-161924998I0J-249998D01*
G01*
X110200000Y-162450002D01*
G75*
G02*
X109950002Y-162700000I-249998J0D01*
G01*
X109049998Y-162700000D01*
G75*
G02*
X108800000Y-162450002I0J249998D01*
G01*
X108800000Y-161924998D01*
G75*
G02*
X109049998Y-161675000I249998J0D01*
G01*
G37*
G36*
G01*
X107149998Y-161675000D02*
X108050002Y-161675000D01*
G75*
G02*
X108300000Y-161924998I0J-249998D01*
G01*
X108300000Y-162450002D01*
G75*
G02*
X108050002Y-162700000I-249998J0D01*
G01*
X107149998Y-162700000D01*
G75*
G02*
X106900000Y-162450002I0J249998D01*
G01*
X106900000Y-161924998D01*
G75*
G02*
X107149998Y-161675000I249998J0D01*
G01*
G37*
G36*
G01*
X107149998Y-163500000D02*
X108050002Y-163500000D01*
G75*
G02*
X108300000Y-163749998I0J-249998D01*
G01*
X108300000Y-164275002D01*
G75*
G02*
X108050002Y-164525000I-249998J0D01*
G01*
X107149998Y-164525000D01*
G75*
G02*
X106900000Y-164275002I0J249998D01*
G01*
X106900000Y-163749998D01*
G75*
G02*
X107149998Y-163500000I249998J0D01*
G01*
G37*
G36*
G01*
X105249998Y-163500000D02*
X106150002Y-163500000D01*
G75*
G02*
X106400000Y-163749998I0J-249998D01*
G01*
X106400000Y-164275002D01*
G75*
G02*
X106150002Y-164525000I-249998J0D01*
G01*
X105249998Y-164525000D01*
G75*
G02*
X105000000Y-164275002I0J249998D01*
G01*
X105000000Y-163749998D01*
G75*
G02*
X105249998Y-163500000I249998J0D01*
G01*
G37*
G36*
G01*
X105249998Y-161675000D02*
X106150002Y-161675000D01*
G75*
G02*
X106400000Y-161924998I0J-249998D01*
G01*
X106400000Y-162450002D01*
G75*
G02*
X106150002Y-162700000I-249998J0D01*
G01*
X105249998Y-162700000D01*
G75*
G02*
X105000000Y-162450002I0J249998D01*
G01*
X105000000Y-161924998D01*
G75*
G02*
X105249998Y-161675000I249998J0D01*
G01*
G37*
G36*
G01*
X103349998Y-163500000D02*
X104250002Y-163500000D01*
G75*
G02*
X104500000Y-163749998I0J-249998D01*
G01*
X104500000Y-164275002D01*
G75*
G02*
X104250002Y-164525000I-249998J0D01*
G01*
X103349998Y-164525000D01*
G75*
G02*
X103100000Y-164275002I0J249998D01*
G01*
X103100000Y-163749998D01*
G75*
G02*
X103349998Y-163500000I249998J0D01*
G01*
G37*
G36*
G01*
X103349998Y-161675000D02*
X104250002Y-161675000D01*
G75*
G02*
X104500000Y-161924998I0J-249998D01*
G01*
X104500000Y-162450002D01*
G75*
G02*
X104250002Y-162700000I-249998J0D01*
G01*
X103349998Y-162700000D01*
G75*
G02*
X103100000Y-162450002I0J249998D01*
G01*
X103100000Y-161924998D01*
G75*
G02*
X103349998Y-161675000I249998J0D01*
G01*
G37*
G36*
G01*
X101449998Y-163500000D02*
X102350002Y-163500000D01*
G75*
G02*
X102600000Y-163749998I0J-249998D01*
G01*
X102600000Y-164275002D01*
G75*
G02*
X102350002Y-164525000I-249998J0D01*
G01*
X101449998Y-164525000D01*
G75*
G02*
X101200000Y-164275002I0J249998D01*
G01*
X101200000Y-163749998D01*
G75*
G02*
X101449998Y-163500000I249998J0D01*
G01*
G37*
G36*
G01*
X101449998Y-161675000D02*
X102350002Y-161675000D01*
G75*
G02*
X102600000Y-161924998I0J-249998D01*
G01*
X102600000Y-162450002D01*
G75*
G02*
X102350002Y-162700000I-249998J0D01*
G01*
X101449998Y-162700000D01*
G75*
G02*
X101200000Y-162450002I0J249998D01*
G01*
X101200000Y-161924998D01*
G75*
G02*
X101449998Y-161675000I249998J0D01*
G01*
G37*
G36*
G01*
X99549998Y-161675000D02*
X100450002Y-161675000D01*
G75*
G02*
X100700000Y-161924998I0J-249998D01*
G01*
X100700000Y-162450002D01*
G75*
G02*
X100450002Y-162700000I-249998J0D01*
G01*
X99549998Y-162700000D01*
G75*
G02*
X99300000Y-162450002I0J249998D01*
G01*
X99300000Y-161924998D01*
G75*
G02*
X99549998Y-161675000I249998J0D01*
G01*
G37*
G36*
G01*
X99549998Y-163500000D02*
X100450002Y-163500000D01*
G75*
G02*
X100700000Y-163749998I0J-249998D01*
G01*
X100700000Y-164275002D01*
G75*
G02*
X100450002Y-164525000I-249998J0D01*
G01*
X99549998Y-164525000D01*
G75*
G02*
X99300000Y-164275002I0J249998D01*
G01*
X99300000Y-163749998D01*
G75*
G02*
X99549998Y-163500000I249998J0D01*
G01*
G37*
G36*
G01*
X98900000Y-98449998D02*
X98900000Y-99350002D01*
G75*
G02*
X98650002Y-99600000I-249998J0D01*
G01*
X98124998Y-99600000D01*
G75*
G02*
X97875000Y-99350002I0J249998D01*
G01*
X97875000Y-98449998D01*
G75*
G02*
X98124998Y-98200000I249998J0D01*
G01*
X98650002Y-98200000D01*
G75*
G02*
X98900000Y-98449998I0J-249998D01*
G01*
G37*
G36*
G01*
X100725000Y-98449998D02*
X100725000Y-99350002D01*
G75*
G02*
X100475002Y-99600000I-249998J0D01*
G01*
X99949998Y-99600000D01*
G75*
G02*
X99700000Y-99350002I0J249998D01*
G01*
X99700000Y-98449998D01*
G75*
G02*
X99949998Y-98200000I249998J0D01*
G01*
X100475002Y-98200000D01*
G75*
G02*
X100725000Y-98449998I0J-249998D01*
G01*
G37*
G36*
G01*
X100825000Y-106549998D02*
X100825000Y-107450002D01*
G75*
G02*
X100575002Y-107700000I-249998J0D01*
G01*
X100049998Y-107700000D01*
G75*
G02*
X99800000Y-107450002I0J249998D01*
G01*
X99800000Y-106549998D01*
G75*
G02*
X100049998Y-106300000I249998J0D01*
G01*
X100575002Y-106300000D01*
G75*
G02*
X100825000Y-106549998I0J-249998D01*
G01*
G37*
G36*
G01*
X99000000Y-106549998D02*
X99000000Y-107450002D01*
G75*
G02*
X98750002Y-107700000I-249998J0D01*
G01*
X98224998Y-107700000D01*
G75*
G02*
X97975000Y-107450002I0J249998D01*
G01*
X97975000Y-106549998D01*
G75*
G02*
X98224998Y-106300000I249998J0D01*
G01*
X98750002Y-106300000D01*
G75*
G02*
X99000000Y-106549998I0J-249998D01*
G01*
G37*
G36*
G01*
X100825000Y-112949998D02*
X100825000Y-113850002D01*
G75*
G02*
X100575002Y-114100000I-249998J0D01*
G01*
X100049998Y-114100000D01*
G75*
G02*
X99800000Y-113850002I0J249998D01*
G01*
X99800000Y-112949998D01*
G75*
G02*
X100049998Y-112700000I249998J0D01*
G01*
X100575002Y-112700000D01*
G75*
G02*
X100825000Y-112949998I0J-249998D01*
G01*
G37*
G36*
G01*
X99000000Y-112949998D02*
X99000000Y-113850002D01*
G75*
G02*
X98750002Y-114100000I-249998J0D01*
G01*
X98224998Y-114100000D01*
G75*
G02*
X97975000Y-113850002I0J249998D01*
G01*
X97975000Y-112949998D01*
G75*
G02*
X98224998Y-112700000I249998J0D01*
G01*
X98750002Y-112700000D01*
G75*
G02*
X99000000Y-112949998I0J-249998D01*
G01*
G37*
G36*
G01*
X100825000Y-125449998D02*
X100825000Y-126350002D01*
G75*
G02*
X100575002Y-126600000I-249998J0D01*
G01*
X100049998Y-126600000D01*
G75*
G02*
X99800000Y-126350002I0J249998D01*
G01*
X99800000Y-125449998D01*
G75*
G02*
X100049998Y-125200000I249998J0D01*
G01*
X100575002Y-125200000D01*
G75*
G02*
X100825000Y-125449998I0J-249998D01*
G01*
G37*
G36*
G01*
X99000000Y-125449998D02*
X99000000Y-126350002D01*
G75*
G02*
X98750002Y-126600000I-249998J0D01*
G01*
X98224998Y-126600000D01*
G75*
G02*
X97975000Y-126350002I0J249998D01*
G01*
X97975000Y-125449998D01*
G75*
G02*
X98224998Y-125200000I249998J0D01*
G01*
X98750002Y-125200000D01*
G75*
G02*
X99000000Y-125449998I0J-249998D01*
G01*
G37*
G36*
G01*
X99000000Y-120949998D02*
X99000000Y-121850002D01*
G75*
G02*
X98750002Y-122100000I-249998J0D01*
G01*
X98224998Y-122100000D01*
G75*
G02*
X97975000Y-121850002I0J249998D01*
G01*
X97975000Y-120949998D01*
G75*
G02*
X98224998Y-120700000I249998J0D01*
G01*
X98750002Y-120700000D01*
G75*
G02*
X99000000Y-120949998I0J-249998D01*
G01*
G37*
G36*
G01*
X100825000Y-120949998D02*
X100825000Y-121850002D01*
G75*
G02*
X100575002Y-122100000I-249998J0D01*
G01*
X100049998Y-122100000D01*
G75*
G02*
X99800000Y-121850002I0J249998D01*
G01*
X99800000Y-120949998D01*
G75*
G02*
X100049998Y-120700000I249998J0D01*
G01*
X100575002Y-120700000D01*
G75*
G02*
X100825000Y-120949998I0J-249998D01*
G01*
G37*
G36*
G01*
X105899998Y-62325000D02*
X106800002Y-62325000D01*
G75*
G02*
X107050000Y-62574998I0J-249998D01*
G01*
X107050000Y-63100002D01*
G75*
G02*
X106800002Y-63350000I-249998J0D01*
G01*
X105899998Y-63350000D01*
G75*
G02*
X105650000Y-63100002I0J249998D01*
G01*
X105650000Y-62574998D01*
G75*
G02*
X105899998Y-62325000I249998J0D01*
G01*
G37*
G36*
G01*
X105899998Y-60500000D02*
X106800002Y-60500000D01*
G75*
G02*
X107050000Y-60749998I0J-249998D01*
G01*
X107050000Y-61275002D01*
G75*
G02*
X106800002Y-61525000I-249998J0D01*
G01*
X105899998Y-61525000D01*
G75*
G02*
X105650000Y-61275002I0J249998D01*
G01*
X105650000Y-60749998D01*
G75*
G02*
X105899998Y-60500000I249998J0D01*
G01*
G37*
G36*
G01*
X103399998Y-65825000D02*
X104300002Y-65825000D01*
G75*
G02*
X104550000Y-66074998I0J-249998D01*
G01*
X104550000Y-66600002D01*
G75*
G02*
X104300002Y-66850000I-249998J0D01*
G01*
X103399998Y-66850000D01*
G75*
G02*
X103150000Y-66600002I0J249998D01*
G01*
X103150000Y-66074998D01*
G75*
G02*
X103399998Y-65825000I249998J0D01*
G01*
G37*
G36*
G01*
X103399998Y-64000000D02*
X104300002Y-64000000D01*
G75*
G02*
X104550000Y-64249998I0J-249998D01*
G01*
X104550000Y-64775002D01*
G75*
G02*
X104300002Y-65025000I-249998J0D01*
G01*
X103399998Y-65025000D01*
G75*
G02*
X103150000Y-64775002I0J249998D01*
G01*
X103150000Y-64249998D01*
G75*
G02*
X103399998Y-64000000I249998J0D01*
G01*
G37*
G36*
G01*
X103399998Y-67500000D02*
X104300002Y-67500000D01*
G75*
G02*
X104550000Y-67749998I0J-249998D01*
G01*
X104550000Y-68275002D01*
G75*
G02*
X104300002Y-68525000I-249998J0D01*
G01*
X103399998Y-68525000D01*
G75*
G02*
X103150000Y-68275002I0J249998D01*
G01*
X103150000Y-67749998D01*
G75*
G02*
X103399998Y-67500000I249998J0D01*
G01*
G37*
G36*
G01*
X103399998Y-69325000D02*
X104300002Y-69325000D01*
G75*
G02*
X104550000Y-69574998I0J-249998D01*
G01*
X104550000Y-70100002D01*
G75*
G02*
X104300002Y-70350000I-249998J0D01*
G01*
X103399998Y-70350000D01*
G75*
G02*
X103150000Y-70100002I0J249998D01*
G01*
X103150000Y-69574998D01*
G75*
G02*
X103399998Y-69325000I249998J0D01*
G01*
G37*
G36*
G01*
X100825000Y-133449998D02*
X100825000Y-134350002D01*
G75*
G02*
X100575002Y-134600000I-249998J0D01*
G01*
X100049998Y-134600000D01*
G75*
G02*
X99800000Y-134350002I0J249998D01*
G01*
X99800000Y-133449998D01*
G75*
G02*
X100049998Y-133200000I249998J0D01*
G01*
X100575002Y-133200000D01*
G75*
G02*
X100825000Y-133449998I0J-249998D01*
G01*
G37*
G36*
G01*
X99000000Y-133449998D02*
X99000000Y-134350002D01*
G75*
G02*
X98750002Y-134600000I-249998J0D01*
G01*
X98224998Y-134600000D01*
G75*
G02*
X97975000Y-134350002I0J249998D01*
G01*
X97975000Y-133449998D01*
G75*
G02*
X98224998Y-133200000I249998J0D01*
G01*
X98750002Y-133200000D01*
G75*
G02*
X99000000Y-133449998I0J-249998D01*
G01*
G37*
G36*
G01*
X99000000Y-137649998D02*
X99000000Y-138550002D01*
G75*
G02*
X98750002Y-138800000I-249998J0D01*
G01*
X98224998Y-138800000D01*
G75*
G02*
X97975000Y-138550002I0J249998D01*
G01*
X97975000Y-137649998D01*
G75*
G02*
X98224998Y-137400000I249998J0D01*
G01*
X98750002Y-137400000D01*
G75*
G02*
X99000000Y-137649998I0J-249998D01*
G01*
G37*
G36*
G01*
X100825000Y-137649998D02*
X100825000Y-138550002D01*
G75*
G02*
X100575002Y-138800000I-249998J0D01*
G01*
X100049998Y-138800000D01*
G75*
G02*
X99800000Y-138550002I0J249998D01*
G01*
X99800000Y-137649998D01*
G75*
G02*
X100049998Y-137400000I249998J0D01*
G01*
X100575002Y-137400000D01*
G75*
G02*
X100825000Y-137649998I0J-249998D01*
G01*
G37*
G36*
G01*
X99000000Y-145749998D02*
X99000000Y-146650002D01*
G75*
G02*
X98750002Y-146900000I-249998J0D01*
G01*
X98224998Y-146900000D01*
G75*
G02*
X97975000Y-146650002I0J249998D01*
G01*
X97975000Y-145749998D01*
G75*
G02*
X98224998Y-145500000I249998J0D01*
G01*
X98750002Y-145500000D01*
G75*
G02*
X99000000Y-145749998I0J-249998D01*
G01*
G37*
G36*
G01*
X100825000Y-145749998D02*
X100825000Y-146650002D01*
G75*
G02*
X100575002Y-146900000I-249998J0D01*
G01*
X100049998Y-146900000D01*
G75*
G02*
X99800000Y-146650002I0J249998D01*
G01*
X99800000Y-145749998D01*
G75*
G02*
X100049998Y-145500000I249998J0D01*
G01*
X100575002Y-145500000D01*
G75*
G02*
X100825000Y-145749998I0J-249998D01*
G01*
G37*
G36*
G01*
X100825000Y-149749998D02*
X100825000Y-150650002D01*
G75*
G02*
X100575002Y-150900000I-249998J0D01*
G01*
X100049998Y-150900000D01*
G75*
G02*
X99800000Y-150650002I0J249998D01*
G01*
X99800000Y-149749998D01*
G75*
G02*
X100049998Y-149500000I249998J0D01*
G01*
X100575002Y-149500000D01*
G75*
G02*
X100825000Y-149749998I0J-249998D01*
G01*
G37*
G36*
G01*
X99000000Y-149749998D02*
X99000000Y-150650002D01*
G75*
G02*
X98750002Y-150900000I-249998J0D01*
G01*
X98224998Y-150900000D01*
G75*
G02*
X97975000Y-150650002I0J249998D01*
G01*
X97975000Y-149749998D01*
G75*
G02*
X98224998Y-149500000I249998J0D01*
G01*
X98750002Y-149500000D01*
G75*
G02*
X99000000Y-149749998I0J-249998D01*
G01*
G37*
G36*
G01*
X100825000Y-157749998D02*
X100825000Y-158650002D01*
G75*
G02*
X100575002Y-158900000I-249998J0D01*
G01*
X100049998Y-158900000D01*
G75*
G02*
X99800000Y-158650002I0J249998D01*
G01*
X99800000Y-157749998D01*
G75*
G02*
X100049998Y-157500000I249998J0D01*
G01*
X100575002Y-157500000D01*
G75*
G02*
X100825000Y-157749998I0J-249998D01*
G01*
G37*
G36*
G01*
X99000000Y-157749998D02*
X99000000Y-158650002D01*
G75*
G02*
X98750002Y-158900000I-249998J0D01*
G01*
X98224998Y-158900000D01*
G75*
G02*
X97975000Y-158650002I0J249998D01*
G01*
X97975000Y-157749998D01*
G75*
G02*
X98224998Y-157500000I249998J0D01*
G01*
X98750002Y-157500000D01*
G75*
G02*
X99000000Y-157749998I0J-249998D01*
G01*
G37*
D23*
X103900000Y-55525000D03*
D24*
X108700000Y-52725000D03*
D25*
X108700000Y-58525000D03*
G36*
G01*
X104775000Y-86625000D02*
X103825000Y-86625000D01*
G75*
G02*
X103575000Y-86375000I0J250000D01*
G01*
X103575000Y-85875000D01*
G75*
G02*
X103825000Y-85625000I250000J0D01*
G01*
X104775000Y-85625000D01*
G75*
G02*
X105025000Y-85875000I0J-250000D01*
G01*
X105025000Y-86375000D01*
G75*
G02*
X104775000Y-86625000I-250000J0D01*
G01*
G37*
G36*
G01*
X104775000Y-88525000D02*
X103825000Y-88525000D01*
G75*
G02*
X103575000Y-88275000I0J250000D01*
G01*
X103575000Y-87775000D01*
G75*
G02*
X103825000Y-87525000I250000J0D01*
G01*
X104775000Y-87525000D01*
G75*
G02*
X105025000Y-87775000I0J-250000D01*
G01*
X105025000Y-88275000D01*
G75*
G02*
X104775000Y-88525000I-250000J0D01*
G01*
G37*
G36*
G01*
X112450000Y-93575000D02*
X113400000Y-93575000D01*
G75*
G02*
X113650000Y-93825000I0J-250000D01*
G01*
X113650000Y-94325000D01*
G75*
G02*
X113400000Y-94575000I-250000J0D01*
G01*
X112450000Y-94575000D01*
G75*
G02*
X112200000Y-94325000I0J250000D01*
G01*
X112200000Y-93825000D01*
G75*
G02*
X112450000Y-93575000I250000J0D01*
G01*
G37*
G36*
G01*
X112450000Y-95475000D02*
X113400000Y-95475000D01*
G75*
G02*
X113650000Y-95725000I0J-250000D01*
G01*
X113650000Y-96225000D01*
G75*
G02*
X113400000Y-96475000I-250000J0D01*
G01*
X112450000Y-96475000D01*
G75*
G02*
X112200000Y-96225000I0J250000D01*
G01*
X112200000Y-95725000D01*
G75*
G02*
X112450000Y-95475000I250000J0D01*
G01*
G37*
G36*
G01*
X106200000Y-92800000D02*
X107150000Y-92800000D01*
G75*
G02*
X107400000Y-93050000I0J-250000D01*
G01*
X107400000Y-93550000D01*
G75*
G02*
X107150000Y-93800000I-250000J0D01*
G01*
X106200000Y-93800000D01*
G75*
G02*
X105950000Y-93550000I0J250000D01*
G01*
X105950000Y-93050000D01*
G75*
G02*
X106200000Y-92800000I250000J0D01*
G01*
G37*
G36*
G01*
X106200000Y-94700000D02*
X107150000Y-94700000D01*
G75*
G02*
X107400000Y-94950000I0J-250000D01*
G01*
X107400000Y-95450000D01*
G75*
G02*
X107150000Y-95700000I-250000J0D01*
G01*
X106200000Y-95700000D01*
G75*
G02*
X105950000Y-95450000I0J250000D01*
G01*
X105950000Y-94950000D01*
G75*
G02*
X106200000Y-94700000I250000J0D01*
G01*
G37*
G36*
G01*
X113500000Y-86875002D02*
X113500000Y-85974998D01*
G75*
G02*
X113749998Y-85725000I249998J0D01*
G01*
X114275002Y-85725000D01*
G75*
G02*
X114525000Y-85974998I0J-249998D01*
G01*
X114525000Y-86875002D01*
G75*
G02*
X114275002Y-87125000I-249998J0D01*
G01*
X113749998Y-87125000D01*
G75*
G02*
X113500000Y-86875002I0J249998D01*
G01*
G37*
G36*
G01*
X115325000Y-86875002D02*
X115325000Y-85974998D01*
G75*
G02*
X115574998Y-85725000I249998J0D01*
G01*
X116100002Y-85725000D01*
G75*
G02*
X116350000Y-85974998I0J-249998D01*
G01*
X116350000Y-86875002D01*
G75*
G02*
X116100002Y-87125000I-249998J0D01*
G01*
X115574998Y-87125000D01*
G75*
G02*
X115325000Y-86875002I0J249998D01*
G01*
G37*
G36*
G01*
X115350000Y-90475002D02*
X115350000Y-89574998D01*
G75*
G02*
X115599998Y-89325000I249998J0D01*
G01*
X116125002Y-89325000D01*
G75*
G02*
X116375000Y-89574998I0J-249998D01*
G01*
X116375000Y-90475002D01*
G75*
G02*
X116125002Y-90725000I-249998J0D01*
G01*
X115599998Y-90725000D01*
G75*
G02*
X115350000Y-90475002I0J249998D01*
G01*
G37*
G36*
G01*
X113525000Y-90475002D02*
X113525000Y-89574998D01*
G75*
G02*
X113774998Y-89325000I249998J0D01*
G01*
X114300002Y-89325000D01*
G75*
G02*
X114550000Y-89574998I0J-249998D01*
G01*
X114550000Y-90475002D01*
G75*
G02*
X114300002Y-90725000I-249998J0D01*
G01*
X113774998Y-90725000D01*
G75*
G02*
X113525000Y-90475002I0J249998D01*
G01*
G37*
G36*
G01*
X104224998Y-91575000D02*
X105125002Y-91575000D01*
G75*
G02*
X105375000Y-91824998I0J-249998D01*
G01*
X105375000Y-92350002D01*
G75*
G02*
X105125002Y-92600000I-249998J0D01*
G01*
X104224998Y-92600000D01*
G75*
G02*
X103975000Y-92350002I0J249998D01*
G01*
X103975000Y-91824998D01*
G75*
G02*
X104224998Y-91575000I249998J0D01*
G01*
G37*
G36*
G01*
X104224998Y-93400000D02*
X105125002Y-93400000D01*
G75*
G02*
X105375000Y-93649998I0J-249998D01*
G01*
X105375000Y-94175002D01*
G75*
G02*
X105125002Y-94425000I-249998J0D01*
G01*
X104224998Y-94425000D01*
G75*
G02*
X103975000Y-94175002I0J249998D01*
G01*
X103975000Y-93649998D01*
G75*
G02*
X104224998Y-93400000I249998J0D01*
G01*
G37*
G36*
G01*
X110225000Y-86400000D02*
X110375000Y-86400000D01*
G75*
G02*
X110450000Y-86475000I0J-75000D01*
G01*
X110450000Y-87175000D01*
G75*
G02*
X110375000Y-87250000I-75000J0D01*
G01*
X110225000Y-87250000D01*
G75*
G02*
X110150000Y-87175000I0J75000D01*
G01*
X110150000Y-86475000D01*
G75*
G02*
X110225000Y-86400000I75000J0D01*
G01*
G37*
G36*
G01*
X109725000Y-86400000D02*
X109875000Y-86400000D01*
G75*
G02*
X109950000Y-86475000I0J-75000D01*
G01*
X109950000Y-87175000D01*
G75*
G02*
X109875000Y-87250000I-75000J0D01*
G01*
X109725000Y-87250000D01*
G75*
G02*
X109650000Y-87175000I0J75000D01*
G01*
X109650000Y-86475000D01*
G75*
G02*
X109725000Y-86400000I75000J0D01*
G01*
G37*
G36*
G01*
X109225000Y-86400000D02*
X109375000Y-86400000D01*
G75*
G02*
X109450000Y-86475000I0J-75000D01*
G01*
X109450000Y-87175000D01*
G75*
G02*
X109375000Y-87250000I-75000J0D01*
G01*
X109225000Y-87250000D01*
G75*
G02*
X109150000Y-87175000I0J75000D01*
G01*
X109150000Y-86475000D01*
G75*
G02*
X109225000Y-86400000I75000J0D01*
G01*
G37*
G36*
G01*
X108725000Y-86400000D02*
X108875000Y-86400000D01*
G75*
G02*
X108950000Y-86475000I0J-75000D01*
G01*
X108950000Y-87175000D01*
G75*
G02*
X108875000Y-87250000I-75000J0D01*
G01*
X108725000Y-87250000D01*
G75*
G02*
X108650000Y-87175000I0J75000D01*
G01*
X108650000Y-86475000D01*
G75*
G02*
X108725000Y-86400000I75000J0D01*
G01*
G37*
G36*
G01*
X108225000Y-86400000D02*
X108375000Y-86400000D01*
G75*
G02*
X108450000Y-86475000I0J-75000D01*
G01*
X108450000Y-87175000D01*
G75*
G02*
X108375000Y-87250000I-75000J0D01*
G01*
X108225000Y-87250000D01*
G75*
G02*
X108150000Y-87175000I0J75000D01*
G01*
X108150000Y-86475000D01*
G75*
G02*
X108225000Y-86400000I75000J0D01*
G01*
G37*
G36*
G01*
X107725000Y-86400000D02*
X107875000Y-86400000D01*
G75*
G02*
X107950000Y-86475000I0J-75000D01*
G01*
X107950000Y-87175000D01*
G75*
G02*
X107875000Y-87250000I-75000J0D01*
G01*
X107725000Y-87250000D01*
G75*
G02*
X107650000Y-87175000I0J75000D01*
G01*
X107650000Y-86475000D01*
G75*
G02*
X107725000Y-86400000I75000J0D01*
G01*
G37*
G36*
G01*
X106675000Y-87600000D02*
X106675000Y-87450000D01*
G75*
G02*
X106750000Y-87375000I75000J0D01*
G01*
X107450000Y-87375000D01*
G75*
G02*
X107525000Y-87450000I0J-75000D01*
G01*
X107525000Y-87600000D01*
G75*
G02*
X107450000Y-87675000I-75000J0D01*
G01*
X106750000Y-87675000D01*
G75*
G02*
X106675000Y-87600000I0J75000D01*
G01*
G37*
G36*
G01*
X106675000Y-88100000D02*
X106675000Y-87950000D01*
G75*
G02*
X106750000Y-87875000I75000J0D01*
G01*
X107450000Y-87875000D01*
G75*
G02*
X107525000Y-87950000I0J-75000D01*
G01*
X107525000Y-88100000D01*
G75*
G02*
X107450000Y-88175000I-75000J0D01*
G01*
X106750000Y-88175000D01*
G75*
G02*
X106675000Y-88100000I0J75000D01*
G01*
G37*
G36*
G01*
X106675000Y-88600000D02*
X106675000Y-88450000D01*
G75*
G02*
X106750000Y-88375000I75000J0D01*
G01*
X107450000Y-88375000D01*
G75*
G02*
X107525000Y-88450000I0J-75000D01*
G01*
X107525000Y-88600000D01*
G75*
G02*
X107450000Y-88675000I-75000J0D01*
G01*
X106750000Y-88675000D01*
G75*
G02*
X106675000Y-88600000I0J75000D01*
G01*
G37*
G36*
G01*
X106675000Y-89100000D02*
X106675000Y-88950000D01*
G75*
G02*
X106750000Y-88875000I75000J0D01*
G01*
X107450000Y-88875000D01*
G75*
G02*
X107525000Y-88950000I0J-75000D01*
G01*
X107525000Y-89100000D01*
G75*
G02*
X107450000Y-89175000I-75000J0D01*
G01*
X106750000Y-89175000D01*
G75*
G02*
X106675000Y-89100000I0J75000D01*
G01*
G37*
G36*
G01*
X106675000Y-89600000D02*
X106675000Y-89450000D01*
G75*
G02*
X106750000Y-89375000I75000J0D01*
G01*
X107450000Y-89375000D01*
G75*
G02*
X107525000Y-89450000I0J-75000D01*
G01*
X107525000Y-89600000D01*
G75*
G02*
X107450000Y-89675000I-75000J0D01*
G01*
X106750000Y-89675000D01*
G75*
G02*
X106675000Y-89600000I0J75000D01*
G01*
G37*
G36*
G01*
X106675000Y-90100000D02*
X106675000Y-89950000D01*
G75*
G02*
X106750000Y-89875000I75000J0D01*
G01*
X107450000Y-89875000D01*
G75*
G02*
X107525000Y-89950000I0J-75000D01*
G01*
X107525000Y-90100000D01*
G75*
G02*
X107450000Y-90175000I-75000J0D01*
G01*
X106750000Y-90175000D01*
G75*
G02*
X106675000Y-90100000I0J75000D01*
G01*
G37*
G36*
G01*
X107725000Y-90300000D02*
X107875000Y-90300000D01*
G75*
G02*
X107950000Y-90375000I0J-75000D01*
G01*
X107950000Y-91075000D01*
G75*
G02*
X107875000Y-91150000I-75000J0D01*
G01*
X107725000Y-91150000D01*
G75*
G02*
X107650000Y-91075000I0J75000D01*
G01*
X107650000Y-90375000D01*
G75*
G02*
X107725000Y-90300000I75000J0D01*
G01*
G37*
G36*
G01*
X108225000Y-90300000D02*
X108375000Y-90300000D01*
G75*
G02*
X108450000Y-90375000I0J-75000D01*
G01*
X108450000Y-91075000D01*
G75*
G02*
X108375000Y-91150000I-75000J0D01*
G01*
X108225000Y-91150000D01*
G75*
G02*
X108150000Y-91075000I0J75000D01*
G01*
X108150000Y-90375000D01*
G75*
G02*
X108225000Y-90300000I75000J0D01*
G01*
G37*
G36*
G01*
X108725000Y-90300000D02*
X108875000Y-90300000D01*
G75*
G02*
X108950000Y-90375000I0J-75000D01*
G01*
X108950000Y-91075000D01*
G75*
G02*
X108875000Y-91150000I-75000J0D01*
G01*
X108725000Y-91150000D01*
G75*
G02*
X108650000Y-91075000I0J75000D01*
G01*
X108650000Y-90375000D01*
G75*
G02*
X108725000Y-90300000I75000J0D01*
G01*
G37*
G36*
G01*
X109225000Y-90300000D02*
X109375000Y-90300000D01*
G75*
G02*
X109450000Y-90375000I0J-75000D01*
G01*
X109450000Y-91075000D01*
G75*
G02*
X109375000Y-91150000I-75000J0D01*
G01*
X109225000Y-91150000D01*
G75*
G02*
X109150000Y-91075000I0J75000D01*
G01*
X109150000Y-90375000D01*
G75*
G02*
X109225000Y-90300000I75000J0D01*
G01*
G37*
G36*
G01*
X109725000Y-90300000D02*
X109875000Y-90300000D01*
G75*
G02*
X109950000Y-90375000I0J-75000D01*
G01*
X109950000Y-91075000D01*
G75*
G02*
X109875000Y-91150000I-75000J0D01*
G01*
X109725000Y-91150000D01*
G75*
G02*
X109650000Y-91075000I0J75000D01*
G01*
X109650000Y-90375000D01*
G75*
G02*
X109725000Y-90300000I75000J0D01*
G01*
G37*
G36*
G01*
X110225000Y-90300000D02*
X110375000Y-90300000D01*
G75*
G02*
X110450000Y-90375000I0J-75000D01*
G01*
X110450000Y-91075000D01*
G75*
G02*
X110375000Y-91150000I-75000J0D01*
G01*
X110225000Y-91150000D01*
G75*
G02*
X110150000Y-91075000I0J75000D01*
G01*
X110150000Y-90375000D01*
G75*
G02*
X110225000Y-90300000I75000J0D01*
G01*
G37*
G36*
G01*
X110575000Y-90100000D02*
X110575000Y-89950000D01*
G75*
G02*
X110650000Y-89875000I75000J0D01*
G01*
X111350000Y-89875000D01*
G75*
G02*
X111425000Y-89950000I0J-75000D01*
G01*
X111425000Y-90100000D01*
G75*
G02*
X111350000Y-90175000I-75000J0D01*
G01*
X110650000Y-90175000D01*
G75*
G02*
X110575000Y-90100000I0J75000D01*
G01*
G37*
G36*
G01*
X110575000Y-89600000D02*
X110575000Y-89450000D01*
G75*
G02*
X110650000Y-89375000I75000J0D01*
G01*
X111350000Y-89375000D01*
G75*
G02*
X111425000Y-89450000I0J-75000D01*
G01*
X111425000Y-89600000D01*
G75*
G02*
X111350000Y-89675000I-75000J0D01*
G01*
X110650000Y-89675000D01*
G75*
G02*
X110575000Y-89600000I0J75000D01*
G01*
G37*
G36*
G01*
X110575000Y-89100000D02*
X110575000Y-88950000D01*
G75*
G02*
X110650000Y-88875000I75000J0D01*
G01*
X111350000Y-88875000D01*
G75*
G02*
X111425000Y-88950000I0J-75000D01*
G01*
X111425000Y-89100000D01*
G75*
G02*
X111350000Y-89175000I-75000J0D01*
G01*
X110650000Y-89175000D01*
G75*
G02*
X110575000Y-89100000I0J75000D01*
G01*
G37*
G36*
G01*
X110575000Y-88600000D02*
X110575000Y-88450000D01*
G75*
G02*
X110650000Y-88375000I75000J0D01*
G01*
X111350000Y-88375000D01*
G75*
G02*
X111425000Y-88450000I0J-75000D01*
G01*
X111425000Y-88600000D01*
G75*
G02*
X111350000Y-88675000I-75000J0D01*
G01*
X110650000Y-88675000D01*
G75*
G02*
X110575000Y-88600000I0J75000D01*
G01*
G37*
G36*
G01*
X110575000Y-88100000D02*
X110575000Y-87950000D01*
G75*
G02*
X110650000Y-87875000I75000J0D01*
G01*
X111350000Y-87875000D01*
G75*
G02*
X111425000Y-87950000I0J-75000D01*
G01*
X111425000Y-88100000D01*
G75*
G02*
X111350000Y-88175000I-75000J0D01*
G01*
X110650000Y-88175000D01*
G75*
G02*
X110575000Y-88100000I0J75000D01*
G01*
G37*
G36*
G01*
X110575000Y-87600000D02*
X110575000Y-87450000D01*
G75*
G02*
X110650000Y-87375000I75000J0D01*
G01*
X111350000Y-87375000D01*
G75*
G02*
X111425000Y-87450000I0J-75000D01*
G01*
X111425000Y-87600000D01*
G75*
G02*
X111350000Y-87675000I-75000J0D01*
G01*
X110650000Y-87675000D01*
G75*
G02*
X110575000Y-87600000I0J75000D01*
G01*
G37*
M02*
