M48
; DRILL file {KiCad (5.1.9)-1} date 02/02/21 19:43:58
; FORMAT={-:-/ absolute / inch / decimal}
; #@! TF.CreationDate,2021-02-02T19:43:58-05:00
; #@! TF.GenerationSoftware,Kicad,Pcbnew,(5.1.9)-1
FMAT,2
INCH
T1C0.0118
T2C0.0157
T3C0.0300
T4C0.0315
T5C0.1000
%
G90
G05
T1
X3.9114Y-3.8937
X3.9114Y-4.1319
X3.9134Y-4.2913
X3.9154Y-4.2146
X3.9154Y-4.4646
X3.9154Y-4.5433
X3.9154Y-4.7795
X3.9154Y-4.8583
X3.9154Y-4.9567
X3.9154Y-5.0354
X3.9154Y-5.2717
X3.9154Y-5.3504
X3.9154Y-5.437
X3.9154Y-5.5157
X3.9154Y-5.7559
X3.9154Y-5.8346
X3.9154Y-5.9134
X3.9154Y-5.9921
X3.9154Y-6.2264
X4.0965Y-4.122
X4.0965Y-4.3189
X4.0965Y-4.5945
X4.0965Y-4.9724
X4.0965Y-5.0669
X4.0965Y-5.4469
X4.0965Y-5.5394
X4.0965Y-5.9213
X4.0984Y-4.7894
X4.1122Y-4.4764
X4.1122Y-4.8839
X4.1122Y-5.3563
X4.1122Y-5.8307
X4.1122Y-6.0138
X4.1122Y-6.2106
X4.1142Y-4.0167
X4.1142Y-4.2205
X4.1142Y-5.2677
X4.1142Y-5.7402
X4.122Y-3.7421
X4.1693Y-3.5295
X4.1752Y-3.5591
X4.2008Y-3.7894
X4.252Y-4.0
X4.2697Y-4.0187
X4.3691Y-4.5945
X4.3691Y-5.2618
X4.3699Y-4.1223
X4.3701Y-4.3199
X4.3701Y-4.7923
X4.3701Y-5.0659
X4.3701Y-5.5384
X4.3701Y-5.7352
X4.3701Y-6.2096
X4.3711Y-6.0138
X4.3819Y-2.4636
X4.3888Y-2.9754
X4.3888Y-3.001
X4.4163Y-2.7923
X4.4409Y-3.3169
X4.4518Y-3.5285
X4.4557Y-3.8346
X4.4646Y-3.4961
X4.4665Y-2.625
X4.5226Y-3.4459
X4.5236Y-3.5089
X4.5591Y-2.7953
T2
X4.0463Y-4.315
X4.0463Y-5.06
X4.0463Y-5.5374
X4.0463Y-6.0138
X4.0472Y-4.1142
X4.0482Y-4.5906
X4.0482Y-5.2608
X4.0482Y-5.7333
X4.0492Y-4.7894
X4.0502Y-6.2028
X4.0866Y-2.4675
T3
X3.8677Y-2.0256
X3.8677Y-2.1256
X3.8677Y-2.2256
X3.8677Y-2.3256
X3.8677Y-2.4256
X3.8677Y-2.5256
X3.8677Y-2.6256
X3.8677Y-2.7256
X3.8677Y-2.8256
X3.8677Y-2.9256
X3.8677Y-3.0256
X3.8677Y-3.1256
X3.8677Y-3.2256
X3.8677Y-3.3256
X3.8677Y-3.4256
X3.8677Y-3.5256
X4.6677Y-2.4256
X4.6677Y-2.5256
X4.6677Y-2.6256
X4.6677Y-2.7256
X4.6677Y-2.8256
X4.6677Y-2.9256
X4.6677Y-3.0256
X4.6677Y-3.1256
X4.6677Y-3.2256
X4.6677Y-3.3256
X4.6677Y-3.4256
X4.6677Y-3.5256
T5
X3.9177Y-1.8756
X3.9177Y-3.6756
X4.6177Y-1.8756
X4.6177Y-3.6756
T4
G00X4.0906Y-2.1427
M15
G01X4.0906Y-2.2293
M16
G05
G00X4.3228Y-2.0758
M15
G01X4.2362Y-2.0758
M16
G05
G00X4.3307Y-2.3041
M15
G01X4.2283Y-2.3041
M16
G05
T0
M30
