M48
; DRILL file {KiCad (5.1.9)-1} date 02/24/21 14:06:29
; FORMAT={-:-/ absolute / inch / decimal}
; #@! TF.CreationDate,2021-02-24T14:06:29-05:00
; #@! TF.GenerationSoftware,Kicad,Pcbnew,(5.1.9)-1
FMAT,2
INCH
T1C0.0118
T2C0.0157
T3C0.0300
T4C0.0315
T5C0.0394
T6C0.1000
%
G90
G05
T1
X3.9114Y-3.8937
X3.9114Y-4.1319
X3.9134Y-4.2913
X3.9154Y-4.2146
X3.9154Y-4.4646
X3.9154Y-4.5433
X3.9154Y-4.7795
X3.9154Y-4.8583
X3.9154Y-4.9567
X3.9154Y-5.0354
X3.9154Y-5.2717
X3.9154Y-5.3504
X3.9154Y-5.437
X3.9154Y-5.5157
X3.9154Y-5.7559
X3.9154Y-5.8346
X3.9154Y-5.9134
X3.9154Y-5.9921
X3.9154Y-6.2264
X4.0965Y-4.122
X4.0965Y-4.3189
X4.0965Y-4.5945
X4.0965Y-4.9724
X4.0965Y-5.0669
X4.0965Y-5.4469
X4.0965Y-5.5394
X4.0965Y-5.9213
X4.0984Y-4.7894
X4.1122Y-4.4764
X4.1122Y-4.8839
X4.1122Y-5.3563
X4.1122Y-5.8307
X4.1122Y-6.0138
X4.1122Y-6.2106
X4.1142Y-4.0167
X4.1142Y-4.2205
X4.1142Y-5.2677
X4.1142Y-5.7402
X4.122Y-3.7421
X4.1693Y-3.5295
X4.1752Y-3.5591
X4.2008Y-3.7894
X4.252Y-4.0
X4.2697Y-4.0187
X4.3691Y-4.5945
X4.3691Y-5.2618
X4.3699Y-4.1223
X4.3701Y-4.3199
X4.3701Y-4.7923
X4.3701Y-5.0659
X4.3701Y-5.5384
X4.3701Y-5.7352
X4.3701Y-6.2096
X4.3711Y-6.0138
X4.3819Y-2.4636
X4.3888Y-2.9754
X4.3888Y-3.001
X4.4163Y-2.7923
X4.4409Y-3.3169
X4.4518Y-3.5285
X4.4557Y-3.8346
X4.4646Y-3.4961
X4.4665Y-2.625
X4.5226Y-3.4459
X4.5236Y-3.5089
X4.5591Y-2.7953
T2
X3.8425Y-6.378
X3.8661Y-6.437
X3.8735Y-6.3666
X3.8856Y-6.4058
X3.9646Y-2.563
X3.9882Y-3.4882
X4.0118Y-2.752
X4.0394Y-3.7953
X4.0394Y-3.9016
X4.0463Y-4.315
X4.0463Y-5.06
X4.0463Y-5.5374
X4.0463Y-6.0138
X4.0472Y-4.1142
X4.0472Y-4.4331
X4.0472Y-4.4921
X4.0472Y-5.0
X4.0472Y-5.2087
X4.0472Y-5.4803
X4.0472Y-5.6811
X4.0472Y-5.9488
X4.0472Y-6.1535
X4.0482Y-4.5906
X4.0482Y-5.2608
X4.0482Y-5.7333
X4.0492Y-4.7894
X4.0502Y-6.2028
X4.0512Y-4.8976
X4.0512Y-5.378
X4.0512Y-5.8583
X4.0827Y-3.0866
X4.0866Y-2.4675
X4.1339Y-2.7323
X4.1417Y-2.437
X4.2205Y-3.9803
X4.2244Y-3.8268
X4.2953Y-3.1299
X4.3386Y-2.4016
X4.3386Y-2.5276
X4.3386Y-2.9331
X4.374Y-2.5394
X4.374Y-2.5669
X4.4016Y-2.5118
X4.4016Y-2.5394
X4.4016Y-2.5669
X4.4134Y-3.1299
X4.4252Y-3.248
X4.4291Y-2.5118
X4.4291Y-2.5394
X4.4291Y-2.5669
X4.4528Y-3.4331
X4.4528Y-3.9134
X4.4685Y-4.0118
X4.4685Y-4.4843
X4.4685Y-4.9567
X4.4685Y-5.4331
X4.4685Y-5.9016
X4.4882Y-4.4291
X4.4882Y-4.9016
X4.4882Y-5.3701
X4.4882Y-5.6378
X4.4882Y-5.8465
X4.5079Y-4.0118
X4.5079Y-4.4843
X4.5079Y-4.9567
X4.5079Y-5.4331
X4.5079Y-5.9016
X4.5197Y-3.4764
X4.5276Y-6.311
X4.5472Y-4.2205
X4.5472Y-6.1102
X4.5512Y-4.6929
X4.5748Y-4.122
X4.5748Y-4.3189
X4.5748Y-4.5945
X4.5748Y-4.7913
X4.5748Y-5.1654
X4.5748Y-5.2638
X4.5748Y-5.7362
X4.5787Y-5.0669
X4.5787Y-5.6378
X4.5787Y-6.0118
X4.5787Y-6.2087
X4.6654Y-6.3071
X4.6654Y-6.3504
X4.6654Y-6.3858
X4.6772Y-6.4213
T3
X3.8677Y-2.0256
X3.8677Y-2.1256
X3.8677Y-2.2256
X3.8677Y-2.3256
X3.8677Y-2.4256
X3.8677Y-2.5256
X3.8677Y-2.6256
X3.8677Y-2.7256
X3.8677Y-2.8256
X3.8677Y-2.9256
X3.8677Y-3.0256
X3.8677Y-3.1256
X3.8677Y-3.2256
X3.8677Y-3.3256
X3.8677Y-3.4256
X3.8677Y-3.5256
X4.6677Y-2.4256
X4.6677Y-2.5256
X4.6677Y-2.6256
X4.6677Y-2.7256
X4.6677Y-2.8256
X4.6677Y-2.9256
X4.6677Y-3.0256
X4.6677Y-3.1256
X4.6677Y-3.2256
X4.6677Y-3.3256
X4.6677Y-3.4256
X4.6677Y-3.5256
T5
X4.189Y-2.9803
X4.189Y-3.1772
T6
X3.9177Y-1.8756
X3.9177Y-3.6756
X4.6177Y-1.8756
X4.6177Y-3.6756
T4
G00X4.0906Y-2.1427
M15
G01X4.0906Y-2.2293
M16
G05
G00X4.3228Y-2.0758
M15
G01X4.2362Y-2.0758
M16
G05
G00X4.3307Y-2.3041
M15
G01X4.2283Y-2.3041
M16
G05
T0
M30
