  0
SECTION
  2
HEADER
  9
$ACADVER
  1
AC1009
  0
ENDSEC
  0
SECTION
  2
ENTITIES
  0
POLYLINE
  5
90
  8
Layer_0
  62
0
  70
1
  66
1
  10
0
  20
0
  30
0
  0
VERTEX
  5
90
  8
Layer_0
  10
292.75
  20
205
  0
VERTEX
  5
91
  8
Layer_0
  10
292.72461
  20
204.74808
  0
VERTEX
  5
92
  8
Layer_0
  10
292.65179
  20
204.51344
  0
VERTEX
  5
93
  8
Layer_0
  10
292.53656
  20
204.30112
  0
VERTEX
  5
94
  8
Layer_0
  10
292.38391
  20
204.11612
  0
VERTEX
  5
95
  8
Layer_0
  10
292.19891
  20
203.96347
  0
VERTEX
  5
96
  8
Layer_0
  10
291.98657
  20
203.84824
  0
VERTEX
  5
97
  8
Layer_0
  10
291.75195
  20
203.77539
  0
VERTEX
  5
98
  8
Layer_0
  10
291.5
  20
203.75
  0
VERTEX
  5
99
  8
Layer_0
  10
291.24805
  20
203.77539
  0
VERTEX
  5
9a
  8
Layer_0
  10
291.01343
  20
203.84824
  0
VERTEX
  5
9b
  8
Layer_0
  10
290.80109
  20
203.96347
  0
VERTEX
  5
9c
  8
Layer_0
  10
290.61609
  20
204.11612
  0
VERTEX
  5
9d
  8
Layer_0
  10
290.46344
  20
204.30112
  0
VERTEX
  5
9e
  8
Layer_0
  10
290.34821
  20
204.51344
  0
VERTEX
  5
9f
  8
Layer_0
  10
290.27539
  20
204.74808
  0
VERTEX
  5
a0
  8
Layer_0
  10
290.25
  20
205
  0
VERTEX
  5
a1
  8
Layer_0
  10
290.27539
  20
205.25192
  0
VERTEX
  5
a2
  8
Layer_0
  10
290.34821
  20
205.48656
  0
VERTEX
  5
a3
  8
Layer_0
  10
290.46344
  20
205.69888
  0
VERTEX
  5
a4
  8
Layer_0
  10
290.61609
  20
205.88388
  0
VERTEX
  5
a5
  8
Layer_0
  10
290.80109
  20
206.03653
  0
VERTEX
  5
a6
  8
Layer_0
  10
291.01343
  20
206.15176
  0
VERTEX
  5
a7
  8
Layer_0
  10
291.24805
  20
206.22461
  0
VERTEX
  5
a8
  8
Layer_0
  10
291.5
  20
206.25
  0
VERTEX
  5
a9
  8
Layer_0
  10
291.75195
  20
206.22461
  0
VERTEX
  5
aa
  8
Layer_0
  10
291.98657
  20
206.15176
  0
VERTEX
  5
ab
  8
Layer_0
  10
292.19891
  20
206.03653
  0
VERTEX
  5
ac
  8
Layer_0
  10
292.38391
  20
205.88388
  0
VERTEX
  5
ad
  8
Layer_0
  10
292.53656
  20
205.69888
  0
VERTEX
  5
ae
  8
Layer_0
  10
292.65179
  20
205.48656
  0
VERTEX
  5
af
  8
Layer_0
  10
292.72461
  20
205.25192
  0
VERTEX
  5
b0
  8
Layer_0
  10
292.75
  20
205
  0
SEQEND
  0
POLYLINE
  5
b2
  8
Layer_0
  62
0
  70
1
  66
1
  10
0
  20
0
  30
0
  0
VERTEX
  5
b2
  8
Layer_0
  10
309.75
  20
205
  0
VERTEX
  5
b3
  8
Layer_0
  10
309.72461
  20
204.74808
  0
VERTEX
  5
b4
  8
Layer_0
  10
309.65179
  20
204.51344
  0
VERTEX
  5
b5
  8
Layer_0
  10
309.53656
  20
204.30112
  0
VERTEX
  5
b6
  8
Layer_0
  10
309.38391
  20
204.11612
  0
VERTEX
  5
b7
  8
Layer_0
  10
309.19891
  20
203.96347
  0
VERTEX
  5
b8
  8
Layer_0
  10
308.98657
  20
203.84824
  0
VERTEX
  5
b9
  8
Layer_0
  10
308.75195
  20
203.77539
  0
VERTEX
  5
ba
  8
Layer_0
  10
308.5
  20
203.75
  0
VERTEX
  5
bb
  8
Layer_0
  10
308.24805
  20
203.77539
  0
VERTEX
  5
bc
  8
Layer_0
  10
308.01343
  20
203.84824
  0
VERTEX
  5
bd
  8
Layer_0
  10
307.80109
  20
203.96347
  0
VERTEX
  5
be
  8
Layer_0
  10
307.61609
  20
204.11612
  0
VERTEX
  5
bf
  8
Layer_0
  10
307.46344
  20
204.30112
  0
VERTEX
  5
c0
  8
Layer_0
  10
307.34821
  20
204.51344
  0
VERTEX
  5
c1
  8
Layer_0
  10
307.27539
  20
204.74808
  0
VERTEX
  5
c2
  8
Layer_0
  10
307.25
  20
205
  0
VERTEX
  5
c3
  8
Layer_0
  10
307.27539
  20
205.25192
  0
VERTEX
  5
c4
  8
Layer_0
  10
307.34821
  20
205.48656
  0
VERTEX
  5
c5
  8
Layer_0
  10
307.46344
  20
205.69888
  0
VERTEX
  5
c6
  8
Layer_0
  10
307.61609
  20
205.88388
  0
VERTEX
  5
c7
  8
Layer_0
  10
307.80109
  20
206.03653
  0
VERTEX
  5
c8
  8
Layer_0
  10
308.01343
  20
206.15176
  0
VERTEX
  5
c9
  8
Layer_0
  10
308.24805
  20
206.22461
  0
VERTEX
  5
ca
  8
Layer_0
  10
308.5
  20
206.25
  0
VERTEX
  5
cb
  8
Layer_0
  10
308.75195
  20
206.22461
  0
VERTEX
  5
cc
  8
Layer_0
  10
308.98657
  20
206.15176
  0
VERTEX
  5
cd
  8
Layer_0
  10
309.19891
  20
206.03653
  0
VERTEX
  5
ce
  8
Layer_0
  10
309.38391
  20
205.88388
  0
VERTEX
  5
cf
  8
Layer_0
  10
309.53656
  20
205.69888
  0
VERTEX
  5
d0
  8
Layer_0
  10
309.65179
  20
205.48656
  0
VERTEX
  5
d1
  8
Layer_0
  10
309.72461
  20
205.25192
  0
VERTEX
  5
d2
  8
Layer_0
  10
309.75
  20
205
  0
SEQEND
  0
POLYLINE
  5
d4
  8
Layer_0
  62
0
  70
1
  66
1
  10
0
  20
0
  30
0
  0
VERTEX
  5
d4
  8
Layer_0
  10
292.75
  20
257
  0
VERTEX
  5
d5
  8
Layer_0
  10
292.72461
  20
256.74808
  0
VERTEX
  5
d6
  8
Layer_0
  10
292.65179
  20
256.51343
  0
VERTEX
  5
d7
  8
Layer_0
  10
292.53656
  20
256.30112
  0
VERTEX
  5
d8
  8
Layer_0
  10
292.38391
  20
256.11612
  0
VERTEX
  5
d9
  8
Layer_0
  10
292.19891
  20
255.96347
  0
VERTEX
  5
da
  8
Layer_0
  10
291.98657
  20
255.84824
  0
VERTEX
  5
db
  8
Layer_0
  10
291.75195
  20
255.77539
  0
VERTEX
  5
dc
  8
Layer_0
  10
291.5
  20
255.75
  0
VERTEX
  5
dd
  8
Layer_0
  10
291.24805
  20
255.77539
  0
VERTEX
  5
de
  8
Layer_0
  10
291.01343
  20
255.84824
  0
VERTEX
  5
df
  8
Layer_0
  10
290.80109
  20
255.96347
  0
VERTEX
  5
e0
  8
Layer_0
  10
290.61609
  20
256.11612
  0
VERTEX
  5
e1
  8
Layer_0
  10
290.46344
  20
256.30112
  0
VERTEX
  5
e2
  8
Layer_0
  10
290.34821
  20
256.51343
  0
VERTEX
  5
e3
  8
Layer_0
  10
290.27539
  20
256.74808
  0
VERTEX
  5
e4
  8
Layer_0
  10
290.25
  20
257
  0
VERTEX
  5
e5
  8
Layer_0
  10
290.27539
  20
257.25192
  0
VERTEX
  5
e6
  8
Layer_0
  10
290.34821
  20
257.48657
  0
VERTEX
  5
e7
  8
Layer_0
  10
290.46344
  20
257.69888
  0
VERTEX
  5
e8
  8
Layer_0
  10
290.61609
  20
257.88388
  0
VERTEX
  5
e9
  8
Layer_0
  10
290.80109
  20
258.03653
  0
VERTEX
  5
ea
  8
Layer_0
  10
291.01343
  20
258.15176
  0
VERTEX
  5
eb
  8
Layer_0
  10
291.24805
  20
258.22461
  0
VERTEX
  5
ec
  8
Layer_0
  10
291.5
  20
258.25
  0
VERTEX
  5
ed
  8
Layer_0
  10
291.75195
  20
258.22461
  0
VERTEX
  5
ee
  8
Layer_0
  10
291.98657
  20
258.15176
  0
VERTEX
  5
ef
  8
Layer_0
  10
292.19891
  20
258.03653
  0
VERTEX
  5
f0
  8
Layer_0
  10
292.38391
  20
257.88388
  0
VERTEX
  5
f1
  8
Layer_0
  10
292.53656
  20
257.69888
  0
VERTEX
  5
f2
  8
Layer_0
  10
292.65179
  20
257.48657
  0
VERTEX
  5
f3
  8
Layer_0
  10
292.72461
  20
257.25192
  0
VERTEX
  5
f4
  8
Layer_0
  10
292.75
  20
257
  0
SEQEND
  0
POLYLINE
  5
f6
  8
Layer_0
  62
0
  70
1
  66
1
  10
0
  20
0
  30
0
  0
VERTEX
  5
f6
  8
Layer_0
  10
292.75
  20
143
  0
VERTEX
  5
f7
  8
Layer_0
  10
292.72461
  20
142.74805
  0
VERTEX
  5
f8
  8
Layer_0
  10
292.65179
  20
142.51343
  0
VERTEX
  5
f9
  8
Layer_0
  10
292.53656
  20
142.30109
  0
VERTEX
  5
fa
  8
Layer_0
  10
292.38391
  20
142.11609
  0
VERTEX
  5
fb
  8
Layer_0
  10
292.19891
  20
141.96344
  0
VERTEX
  5
fc
  8
Layer_0
  10
291.98657
  20
141.84821
  0
VERTEX
  5
fd
  8
Layer_0
  10
291.75195
  20
141.77539
  0
VERTEX
  5
fe
  8
Layer_0
  10
291.5
  20
141.75
  0
VERTEX
  5
ff
  8
Layer_0
  10
291.24805
  20
141.77539
  0
VERTEX
  5
100
  8
Layer_0
  10
291.01343
  20
141.84821
  0
VERTEX
  5
101
  8
Layer_0
  10
290.80109
  20
141.96344
  0
VERTEX
  5
102
  8
Layer_0
  10
290.61609
  20
142.11609
  0
VERTEX
  5
103
  8
Layer_0
  10
290.46344
  20
142.30109
  0
VERTEX
  5
104
  8
Layer_0
  10
290.34821
  20
142.51343
  0
VERTEX
  5
105
  8
Layer_0
  10
290.27539
  20
142.74805
  0
VERTEX
  5
106
  8
Layer_0
  10
290.25
  20
143
  0
VERTEX
  5
107
  8
Layer_0
  10
290.27539
  20
143.25195
  0
VERTEX
  5
108
  8
Layer_0
  10
290.34821
  20
143.48657
  0
VERTEX
  5
109
  8
Layer_0
  10
290.46344
  20
143.69888
  0
VERTEX
  5
10a
  8
Layer_0
  10
290.61609
  20
143.88388
  0
VERTEX
  5
10b
  8
Layer_0
  10
290.80109
  20
144.03651
  0
VERTEX
  5
10c
  8
Layer_0
  10
291.01343
  20
144.15176
  0
VERTEX
  5
10d
  8
Layer_0
  10
291.24805
  20
144.22461
  0
VERTEX
  5
10e
  8
Layer_0
  10
291.5
  20
144.25
  0
VERTEX
  5
10f
  8
Layer_0
  10
291.75195
  20
144.22461
  0
VERTEX
  5
110
  8
Layer_0
  10
291.98657
  20
144.15176
  0
VERTEX
  5
111
  8
Layer_0
  10
292.19891
  20
144.03651
  0
VERTEX
  5
112
  8
Layer_0
  10
292.38391
  20
143.88388
  0
VERTEX
  5
113
  8
Layer_0
  10
292.53656
  20
143.69888
  0
VERTEX
  5
114
  8
Layer_0
  10
292.65179
  20
143.48657
  0
VERTEX
  5
115
  8
Layer_0
  10
292.72461
  20
143.25195
  0
VERTEX
  5
116
  8
Layer_0
  10
292.75
  20
143
  0
SEQEND
  0
POLYLINE
  5
118
  8
Layer_0
  62
0
  70
1
  66
1
  10
0
  20
0
  30
0
  0
VERTEX
  5
118
  8
Layer_0
  10
309.75
  20
257
  0
VERTEX
  5
119
  8
Layer_0
  10
309.72461
  20
256.74808
  0
VERTEX
  5
11a
  8
Layer_0
  10
309.65179
  20
256.51343
  0
VERTEX
  5
11b
  8
Layer_0
  10
309.53656
  20
256.30112
  0
VERTEX
  5
11c
  8
Layer_0
  10
309.38391
  20
256.11612
  0
VERTEX
  5
11d
  8
Layer_0
  10
309.19891
  20
255.96347
  0
VERTEX
  5
11e
  8
Layer_0
  10
308.98657
  20
255.84824
  0
VERTEX
  5
11f
  8
Layer_0
  10
308.75195
  20
255.77539
  0
VERTEX
  5
120
  8
Layer_0
  10
308.5
  20
255.75
  0
VERTEX
  5
121
  8
Layer_0
  10
308.24805
  20
255.77539
  0
VERTEX
  5
122
  8
Layer_0
  10
308.01343
  20
255.84824
  0
VERTEX
  5
123
  8
Layer_0
  10
307.80109
  20
255.96347
  0
VERTEX
  5
124
  8
Layer_0
  10
307.61609
  20
256.11612
  0
VERTEX
  5
125
  8
Layer_0
  10
307.46344
  20
256.30112
  0
VERTEX
  5
126
  8
Layer_0
  10
307.34821
  20
256.51343
  0
VERTEX
  5
127
  8
Layer_0
  10
307.27539
  20
256.74808
  0
VERTEX
  5
128
  8
Layer_0
  10
307.25
  20
257
  0
VERTEX
  5
129
  8
Layer_0
  10
307.27539
  20
257.25192
  0
VERTEX
  5
12a
  8
Layer_0
  10
307.34821
  20
257.48657
  0
VERTEX
  5
12b
  8
Layer_0
  10
307.46344
  20
257.69888
  0
VERTEX
  5
12c
  8
Layer_0
  10
307.61609
  20
257.88388
  0
VERTEX
  5
12d
  8
Layer_0
  10
307.80109
  20
258.03653
  0
VERTEX
  5
12e
  8
Layer_0
  10
308.01343
  20
258.15176
  0
VERTEX
  5
12f
  8
Layer_0
  10
308.24805
  20
258.22461
  0
VERTEX
  5
130
  8
Layer_0
  10
308.5
  20
258.25
  0
VERTEX
  5
131
  8
Layer_0
  10
308.75195
  20
258.22461
  0
VERTEX
  5
132
  8
Layer_0
  10
308.98657
  20
258.15176
  0
VERTEX
  5
133
  8
Layer_0
  10
309.19891
  20
258.03653
  0
VERTEX
  5
134
  8
Layer_0
  10
309.38391
  20
257.88388
  0
VERTEX
  5
135
  8
Layer_0
  10
309.53656
  20
257.69888
  0
VERTEX
  5
136
  8
Layer_0
  10
309.65179
  20
257.48657
  0
VERTEX
  5
137
  8
Layer_0
  10
309.72461
  20
257.25192
  0
VERTEX
  5
138
  8
Layer_0
  10
309.75
  20
257
  0
SEQEND
  0
POLYLINE
  5
13a
  8
Layer_0
  62
0
  70
1
  66
1
  10
0
  20
0
  30
0
  0
VERTEX
  5
13a
  8
Layer_0
  10
309.75
  20
143
  0
VERTEX
  5
13b
  8
Layer_0
  10
309.72461
  20
142.74805
  0
VERTEX
  5
13c
  8
Layer_0
  10
309.65179
  20
142.51343
  0
VERTEX
  5
13d
  8
Layer_0
  10
309.53656
  20
142.30109
  0
VERTEX
  5
13e
  8
Layer_0
  10
309.38391
  20
142.11609
  0
VERTEX
  5
13f
  8
Layer_0
  10
309.19891
  20
141.96344
  0
VERTEX
  5
140
  8
Layer_0
  10
308.98657
  20
141.84821
  0
VERTEX
  5
141
  8
Layer_0
  10
308.75195
  20
141.77539
  0
VERTEX
  5
142
  8
Layer_0
  10
308.5
  20
141.75
  0
VERTEX
  5
143
  8
Layer_0
  10
308.24805
  20
141.77539
  0
VERTEX
  5
144
  8
Layer_0
  10
308.01343
  20
141.84821
  0
VERTEX
  5
145
  8
Layer_0
  10
307.80109
  20
141.96344
  0
VERTEX
  5
146
  8
Layer_0
  10
307.61609
  20
142.11609
  0
VERTEX
  5
147
  8
Layer_0
  10
307.46344
  20
142.30109
  0
VERTEX
  5
148
  8
Layer_0
  10
307.34821
  20
142.51343
  0
VERTEX
  5
149
  8
Layer_0
  10
307.27539
  20
142.74805
  0
VERTEX
  5
14a
  8
Layer_0
  10
307.25
  20
143
  0
VERTEX
  5
14b
  8
Layer_0
  10
307.27539
  20
143.25195
  0
VERTEX
  5
14c
  8
Layer_0
  10
307.34821
  20
143.48657
  0
VERTEX
  5
14d
  8
Layer_0
  10
307.46344
  20
143.69888
  0
VERTEX
  5
14e
  8
Layer_0
  10
307.61609
  20
143.88388
  0
VERTEX
  5
14f
  8
Layer_0
  10
307.80109
  20
144.03651
  0
VERTEX
  5
150
  8
Layer_0
  10
308.01343
  20
144.15176
  0
VERTEX
  5
151
  8
Layer_0
  10
308.24805
  20
144.22461
  0
VERTEX
  5
152
  8
Layer_0
  10
308.5
  20
144.25
  0
VERTEX
  5
153
  8
Layer_0
  10
308.75195
  20
144.22461
  0
VERTEX
  5
154
  8
Layer_0
  10
308.98657
  20
144.15176
  0
VERTEX
  5
155
  8
Layer_0
  10
309.19891
  20
144.03651
  0
VERTEX
  5
156
  8
Layer_0
  10
309.38391
  20
143.88388
  0
VERTEX
  5
157
  8
Layer_0
  10
309.53656
  20
143.69888
  0
VERTEX
  5
158
  8
Layer_0
  10
309.65179
  20
143.48657
  0
VERTEX
  5
159
  8
Layer_0
  10
309.72461
  20
143.25195
  0
VERTEX
  5
15a
  8
Layer_0
  10
309.75
  20
143
  0
SEQEND
  0
POLYLINE
  5
15c
  8
Layer_0
  62
0
  70
1
  66
1
  10
0
  20
0
  30
0
  0
VERTEX
  5
15c
  8
Layer_0
  10
288.5
  20
257
  0
VERTEX
  5
15d
  8
Layer_0
  10
288.5
  20
143
  0
VERTEX
  5
15e
  8
Layer_0
  10
288.5155
  20
142.69327
  0
VERTEX
  5
15f
  8
Layer_0
  10
288.56097
  20
142.39539
  0
VERTEX
  5
160
  8
Layer_0
  10
288.63489
  20
142.10788
  0
VERTEX
  5
161
  8
Layer_0
  10
288.73578
  20
141.83224
  0
VERTEX
  5
162
  8
Layer_0
  10
288.86209
  20
141.57001
  0
VERTEX
  5
163
  8
Layer_0
  10
289.01236
  20
141.32263
  0
VERTEX
  5
164
  8
Layer_0
  10
289.18506
  20
141.09174
  0
VERTEX
  5
165
  8
Layer_0
  10
289.37866
  20
140.87866
  0
VERTEX
  5
166
  8
Layer_0
  10
289.59174
  20
140.68506
  0
VERTEX
  5
167
  8
Layer_0
  10
289.82263
  20
140.51236
  0
VERTEX
  5
168
  8
Layer_0
  10
290.07001
  20
140.36209
  0
VERTEX
  5
169
  8
Layer_0
  10
290.33224
  20
140.23578
  0
VERTEX
  5
16a
  8
Layer_0
  10
290.60788
  20
140.13489
  0
VERTEX
  5
16b
  8
Layer_0
  10
290.89539
  20
140.06097
  0
VERTEX
  5
16c
  8
Layer_0
  10
291.19327
  20
140.0155
  0
VERTEX
  5
16d
  8
Layer_0
  10
291.5
  20
140
  0
VERTEX
  5
16e
  8
Layer_0
  10
308.5
  20
140
  0
VERTEX
  5
16f
  8
Layer_0
  10
308.80673
  20
140.0155
  0
VERTEX
  5
170
  8
Layer_0
  10
309.10461
  20
140.06097
  0
VERTEX
  5
171
  8
Layer_0
  10
309.39212
  20
140.13489
  0
VERTEX
  5
172
  8
Layer_0
  10
309.66776
  20
140.23578
  0
VERTEX
  5
173
  8
Layer_0
  10
309.92999
  20
140.36209
  0
VERTEX
  5
174
  8
Layer_0
  10
310.17737
  20
140.51236
  0
VERTEX
  5
175
  8
Layer_0
  10
310.40826
  20
140.68506
  0
VERTEX
  5
176
  8
Layer_0
  10
310.62134
  20
140.87866
  0
VERTEX
  5
177
  8
Layer_0
  10
310.81494
  20
141.09174
  0
VERTEX
  5
178
  8
Layer_0
  10
310.98764
  20
141.32263
  0
VERTEX
  5
179
  8
Layer_0
  10
311.13791
  20
141.57001
  0
VERTEX
  5
17a
  8
Layer_0
  10
311.26422
  20
141.83224
  0
VERTEX
  5
17b
  8
Layer_0
  10
311.36511
  20
142.10788
  0
VERTEX
  5
17c
  8
Layer_0
  10
311.43903
  20
142.39539
  0
VERTEX
  5
17d
  8
Layer_0
  10
311.4845
  20
142.69327
  0
VERTEX
  5
17e
  8
Layer_0
  10
311.5
  20
143
  0
VERTEX
  5
17f
  8
Layer_0
  10
311.5
  20
257
  0
VERTEX
  5
180
  8
Layer_0
  10
311.4845
  20
257.30673
  0
VERTEX
  5
181
  8
Layer_0
  10
311.43903
  20
257.60461
  0
VERTEX
  5
182
  8
Layer_0
  10
311.36511
  20
257.89209
  0
VERTEX
  5
183
  8
Layer_0
  10
311.26422
  20
258.16772
  0
VERTEX
  5
184
  8
Layer_0
  10
311.13791
  20
258.42999
  0
VERTEX
  5
185
  8
Layer_0
  10
310.98764
  20
258.67734
  0
VERTEX
  5
186
  8
Layer_0
  10
310.81494
  20
258.90826
  0
VERTEX
  5
187
  8
Layer_0
  10
310.62134
  20
259.12134
  0
VERTEX
  5
188
  8
Layer_0
  10
310.40826
  20
259.31494
  0
VERTEX
  5
189
  8
Layer_0
  10
310.17737
  20
259.48764
  0
VERTEX
  5
18a
  8
Layer_0
  10
309.92999
  20
259.63791
  0
VERTEX
  5
18b
  8
Layer_0
  10
309.66776
  20
259.76422
  0
VERTEX
  5
18c
  8
Layer_0
  10
309.39212
  20
259.86511
  0
VERTEX
  5
18d
  8
Layer_0
  10
309.10461
  20
259.93903
  0
VERTEX
  5
18e
  8
Layer_0
  10
308.80673
  20
259.9845
  0
VERTEX
  5
18f
  8
Layer_0
  10
308.5
  20
260
  0
VERTEX
  5
190
  8
Layer_0
  10
291.5
  20
260
  0
VERTEX
  5
191
  8
Layer_0
  10
291.19327
  20
259.9845
  0
VERTEX
  5
192
  8
Layer_0
  10
290.89539
  20
259.93903
  0
VERTEX
  5
193
  8
Layer_0
  10
290.60788
  20
259.86511
  0
VERTEX
  5
194
  8
Layer_0
  10
290.33224
  20
259.76422
  0
VERTEX
  5
195
  8
Layer_0
  10
290.07001
  20
259.63791
  0
VERTEX
  5
196
  8
Layer_0
  10
289.82263
  20
259.48764
  0
VERTEX
  5
197
  8
Layer_0
  10
289.59174
  20
259.31494
  0
VERTEX
  5
198
  8
Layer_0
  10
289.37866
  20
259.12134
  0
VERTEX
  5
199
  8
Layer_0
  10
289.18506
  20
258.90826
  0
VERTEX
  5
19a
  8
Layer_0
  10
289.01236
  20
258.67734
  0
VERTEX
  5
19b
  8
Layer_0
  10
288.86209
  20
258.42999
  0
VERTEX
  5
19c
  8
Layer_0
  10
288.73578
  20
258.16772
  0
VERTEX
  5
19d
  8
Layer_0
  10
288.63489
  20
257.89209
  0
VERTEX
  5
19e
  8
Layer_0
  10
288.56097
  20
257.60461
  0
VERTEX
  5
19f
  8
Layer_0
  10
288.5155
  20
257.30673
  0
VERTEX
  5
1a0
  8
Layer_0
  10
288.5
  20
257
  0
SEQEND
  0
ENDSEC
  0
EOF
